<svg width="26" height="26" viewBox="0 0 26 26" fill="none" xmlns="http://www.w3.org/2000/svg">
<g clip-path="url(#clip0_13_98)">
<path d="M24.375 25.1875H2.4375C2.00652 25.1875 1.5932 25.0163 1.28845 24.7115C0.983705 24.4068 0.8125 23.9935 0.8125 23.5625V1.625C0.8125 1.40951 0.898102 1.20285 1.05048 1.05048C1.20285 0.898102 1.40951 0.8125 1.625 0.8125C1.84049 0.8125 2.04715 0.898102 2.19952 1.05048C2.3519 1.20285 2.4375 1.40951 2.4375 1.625V23.5625H24.375C24.5905 23.5625 24.7972 23.6481 24.9495 23.8005C25.1019 23.9528 25.1875 24.1595 25.1875 24.375C25.1875 24.5905 25.1019 24.7972 24.9495 24.9495C24.7972 25.1019 24.5905 25.1875 24.375 25.1875Z" fill="#D6D6D6"/>
<path d="M7.92188 21.9375H5.89062C5.40578 21.9375 4.94079 21.7449 4.59795 21.4021C4.25511 21.0592 4.0625 20.5942 4.0625 20.1094V12.3906C4.0625 11.9058 4.25511 11.4408 4.59795 11.0979C4.94079 10.7551 5.40578 10.5625 5.89062 10.5625H7.92188C8.40672 10.5625 8.87171 10.7551 9.21455 11.0979C9.55739 11.4408 9.75 11.9058 9.75 12.3906V20.1094C9.75 20.5942 9.55739 21.0592 9.21455 21.4021C8.87171 21.7449 8.40672 21.9375 7.92188 21.9375ZM15.2344 21.9375H13.2031C12.7183 21.9375 12.2533 21.7449 11.9104 21.4021C11.5676 21.0592 11.375 20.5942 11.375 20.1094V9.95312C11.375 9.46828 11.5676 9.00329 11.9104 8.66045C12.2533 8.31761 12.7183 8.125 13.2031 8.125H15.2344C15.7192 8.125 16.1842 8.31761 16.5271 8.66045C16.8699 9.00329 17.0625 9.46828 17.0625 9.95312V20.1094C17.0625 20.5942 16.8699 21.0592 16.5271 21.4021C16.1842 21.7449 15.7192 21.9375 15.2344 21.9375ZM22.5286 21.9375H20.4973C20.0125 21.9375 19.5475 21.7449 19.2047 21.4021C18.8618 21.0592 18.6692 20.5942 18.6692 20.1094V6.70312C18.6692 6.21828 18.8618 5.75329 19.2047 5.41045C19.5475 5.06761 20.0125 4.875 20.4973 4.875H22.5286C23.0134 4.875 23.4784 5.06761 23.8213 5.41045C24.1641 5.75329 24.3567 6.21828 24.3567 6.70312V20.1094C24.3567 20.5942 24.1641 21.0592 23.8213 21.4021C23.4784 21.7449 23.0134 21.9375 22.5286 21.9375Z" fill="#D6D6D6"/>
</g>
<defs>
<clipPath id="clip0_13_98">
<rect width="26" height="26" fill="white"/>
</clipPath>
</defs>
</svg>
