<svg width="26" height="26" viewBox="0 0 26 26" fill="none" xmlns="http://www.w3.org/2000/svg">
<path d="M20.5833 4.33333H16.055C15.6 3.07667 14.4083 2.16667 13 2.16667C11.5917 2.16667 10.4 3.07667 9.945 4.33333H5.41667C4.225 4.33333 3.25 5.30833 3.25 6.5V21.6667C3.25 22.8583 4.225 23.8333 5.41667 23.8333H20.5833C21.775 23.8333 22.75 22.8583 22.75 21.6667V6.5C22.75 5.30833 21.775 4.33333 20.5833 4.33333ZM13 4.0625C13.4442 4.0625 13.8125 4.43083 13.8125 4.875C13.8125 5.31917 13.4442 5.6875 13 5.6875C12.5558 5.6875 12.1875 5.31917 12.1875 4.875C12.1875 4.43083 12.5558 4.0625 13 4.0625ZM20.5833 21.6667H5.41667V6.5H20.5833V21.6667Z" fill="#D6D6D6"/>
<path d="M16.3367 13.0325L14.04 10.7358L7.58333 17.1817V19.5H9.85833L16.3367 13.0325Z" fill="#D6D6D6"/>
<path d="M18.2542 11.1258C18.4708 10.9092 18.4708 10.5733 18.2542 10.3567L16.7267 8.82917C16.51 8.6125 16.1742 8.6125 15.9575 8.82917L14.8092 9.9775L17.1058 12.2742L18.2542 11.1258Z" fill="#D6D6D6"/>
</svg>
