<svg width="104" height="150" viewBox="0 0 104 150" fill="none" xmlns="http://www.w3.org/2000/svg">
<rect y="0.5" width="100" height="149" rx="10" fill="#E66650"/>
<path d="M8.016 16.164H16.048C16.816 16.164 17.296 16.148 17.792 16.084C17.728 16.756 17.712 17.252 17.712 17.796V28.164C17.712 29.028 17.744 29.604 17.808 30.212H15.52V29.332H8.448V30.212H6.192C6.256 29.604 6.288 28.932 6.288 28.164V17.844C6.288 17.236 6.256 16.676 6.208 16.084C6.72 16.132 7.28 16.164 8.016 16.164ZM8.448 21.604H15.52V18.18H8.448V21.604ZM15.52 23.588H8.448V27.316H15.52V23.588ZM33.12 20.004H29.904C30.672 21.396 31.376 22.34 32.368 23.332C33.472 24.404 34.432 25.124 35.664 25.764C35.088 26.5 34.864 26.9 34.464 27.86C33.424 27.172 32.816 26.676 31.856 25.748V27.38C31.344 27.332 30.896 27.3 30.256 27.3H28.96V28.276C28.96 29.044 28.992 29.764 29.072 30.34H26.72C26.8 29.732 26.832 29.06 26.832 28.276V27.3H25.664C25.024 27.3 24.576 27.332 24.064 27.38V25.764C23.184 26.676 22.512 27.236 21.552 27.892C21.168 26.948 20.96 26.596 20.384 25.876C21.648 25.108 22.624 24.292 23.616 23.188C24.512 22.18 25.264 21.108 25.808 20.004H22.864C22.128 20.004 21.552 20.036 20.896 20.116V17.908C21.536 17.988 22.096 18.02 22.864 18.02H26.832V16.964C26.832 16.308 26.8 15.924 26.736 15.476H29.056C28.992 15.892 28.96 16.308 28.96 16.964V18.02H33.12C33.936 18.02 34.544 17.988 35.12 17.908V20.116C34.432 20.036 33.888 20.004 33.12 20.004ZM26.832 25.38V23.364C26.832 22.868 26.864 22.388 26.928 21.78C26.272 23.108 25.584 24.116 24.448 25.348C24.72 25.38 25.008 25.38 25.552 25.38H26.832ZM28.96 25.38H30.416C30.944 25.38 31.168 25.38 31.456 25.348C30.352 24.18 29.664 23.236 28.864 21.764C28.944 22.676 28.96 22.98 28.96 23.332V25.38ZM38.736 24.612L40.656 23.7C40.976 24.372 41.504 25.044 42.176 25.636C42.528 25.06 42.704 24.5 42.8 23.636H39.312C38.624 23.636 38.144 23.652 37.648 23.7C37.68 23.316 37.712 22.868 37.712 22.276V18.692C37.712 18.116 37.68 17.716 37.648 17.316C38.096 17.364 38.64 17.38 39.456 17.38H42.96V16.884C42.96 16.34 42.928 15.988 42.864 15.46H45.184C45.12 15.924 45.104 16.244 45.104 16.932V17.156C45.104 17.22 45.104 17.268 45.104 17.38H48.624C49.488 17.38 50.032 17.364 50.448 17.316C50.4 17.7 50.384 18.084 50.384 18.692V22.276C50.384 22.916 50.4 23.332 50.448 23.7C49.968 23.652 49.504 23.636 48.768 23.636H44.896C44.704 25.092 44.464 25.86 43.888 26.756C44.608 27.076 45.168 27.268 45.904 27.444C47.072 27.716 48.88 27.892 50.576 27.892C50.752 27.892 51.072 27.892 51.6 27.876C51.2 28.628 51.008 29.124 50.736 30.164C48.608 30.068 47.552 29.94 46.304 29.668C44.864 29.364 43.632 28.9 42.528 28.26C41.312 29.236 39.872 29.86 37.616 30.404C37.312 29.54 37.088 29.124 36.528 28.388C38.256 28.164 39.76 27.668 40.8 26.98C40.24 26.484 39.92 26.132 39.312 25.332C39.12 25.092 39.088 25.06 38.928 24.852C38.832 24.724 38.832 24.724 38.736 24.612ZM45.024 21.78H48.256V19.3H45.088C45.072 19.668 45.072 20.02 45.072 20.212C45.056 21.124 45.056 21.124 45.024 21.78ZM39.808 21.78H42.896C42.928 20.532 42.944 19.7 42.944 19.3H39.808V21.78Z" fill="#FDFDFD"/>
<path d="M4 30.58H52V31.38H4V30.58Z" fill="#FDFDFD"/>
<path d="M4.624 44.996L4.494 43.462C4.702 43.488 4.793 43.501 5.3 43.501C5.534 43.215 5.612 43.111 5.872 42.747C5.456 42.084 5.001 41.499 4.403 40.862L5.157 39.536C5.326 39.731 5.391 39.809 5.521 39.952C5.911 39.302 6.262 38.496 6.405 37.924L7.77 38.509C7.653 38.717 7.588 38.834 7.315 39.38C6.99 40.004 6.73 40.459 6.366 41.005C6.587 41.304 6.587 41.304 6.717 41.486C7.393 40.407 7.718 39.822 7.848 39.419L9.096 40.147C8.979 40.303 8.927 40.381 8.771 40.628C8.212 41.551 7.458 42.63 6.808 43.462C7.094 43.449 7.094 43.449 7.874 43.397C7.809 43.059 7.757 42.864 7.627 42.37L8.602 42.11C8.901 43.02 9.005 43.527 9.148 44.619V44.359C9.148 43.8 9.148 43.631 9.122 43.397C9.356 43.423 9.538 43.423 10.032 43.423H11.826V42.929H10.448C9.98 42.929 9.551 42.942 9.252 42.968C9.304 42.292 9.304 42.188 9.304 41.577V39.575C9.304 39.016 9.291 38.795 9.252 38.379C9.564 38.418 9.954 38.431 10.604 38.431H14.621C15.284 38.431 15.648 38.418 15.973 38.379C15.934 38.743 15.921 38.951 15.921 39.692V41.577C15.921 42.123 15.934 42.474 15.973 42.955C15.726 42.942 15.726 42.942 14.79 42.929H13.321V43.423H15.284C15.635 43.423 15.921 43.41 16.181 43.397C16.155 43.579 16.155 43.761 16.155 44.359V47.063C16.155 47.115 16.155 47.141 16.155 47.388C16.363 47.466 16.454 47.492 16.727 47.557C16.636 48.805 16.532 49.221 16.22 49.559C15.882 49.91 15.245 50.04 13.958 50.04C13.178 50.04 12.684 49.975 12.346 49.845C11.969 49.689 11.826 49.39 11.826 48.779V48.051H10.591V48.688H9.096C9.135 48.389 9.148 48.038 9.148 47.648V44.892L8.147 45.191C8.121 44.957 8.108 44.879 8.095 44.71C7.796 44.749 7.796 44.749 7.601 44.762V48.532C7.601 49.39 7.614 49.741 7.679 50.157H6.158C6.223 49.741 6.236 49.39 6.236 48.532V44.853C5.17 44.931 4.923 44.944 4.624 44.996ZM11.826 39.575H10.708V40.147H11.826V39.575ZM13.321 39.575V40.147H14.491V39.575H13.321ZM11.826 41.2H10.708V41.798H11.826V41.2ZM13.321 41.2V41.798H14.491V41.2H13.321ZM13.321 48.051V48.246C13.321 48.571 13.425 48.636 13.932 48.636C14.582 48.636 14.868 48.597 14.972 48.48C15.037 48.415 15.089 48.272 15.128 48.051H13.321ZM11.826 44.619H10.591V45.152H11.826V44.619ZM13.321 44.619V45.152H14.647V44.619H13.321ZM11.826 46.283H10.591V46.855H11.826V46.283ZM13.321 46.283V46.855H14.647V46.283H13.321ZM4.858 45.308L5.937 45.49C5.872 47.232 5.742 48.259 5.456 49.494L4.377 48.883C4.689 47.648 4.78 46.998 4.858 45.308ZM7.809 45.555L8.654 45.36C8.823 46.543 8.823 46.543 8.94 48.441L8.004 48.792C8.004 47.362 7.952 46.504 7.809 45.555ZM27.829 41.473H27.322C27.01 42.656 26.789 43.215 26.347 44.047C25.918 44.866 25.437 45.529 24.813 46.231C26.23 47.258 27.673 47.856 29.74 48.311C29.272 48.896 29.038 49.312 28.739 50.079C26.516 49.364 25.034 48.597 23.565 47.401C22.122 48.571 20.666 49.312 18.3 50.092C18.053 49.442 17.793 49 17.351 48.428C19.678 47.817 21.043 47.219 22.33 46.231C21.043 44.827 20.315 43.527 19.652 41.473H19.197C18.573 41.473 18.027 41.499 17.546 41.551V39.822C18.053 39.887 18.547 39.913 19.249 39.913H22.525V39.029C22.525 38.678 22.499 38.366 22.447 38.093H24.384C24.332 38.366 24.306 38.678 24.306 39.016V39.913H27.764C28.479 39.913 28.973 39.887 29.48 39.822V41.551C28.986 41.499 28.518 41.473 27.829 41.473ZM25.489 41.473H21.433C21.745 42.409 21.927 42.838 22.369 43.566C22.746 44.203 23.071 44.619 23.539 45.113C23.994 44.606 24.319 44.151 24.644 43.566C25.021 42.89 25.177 42.513 25.489 41.473ZM36.903 45.776H36.682C36.227 45.776 35.707 45.802 35.265 45.841V44.19C35.577 44.242 36.006 44.255 36.721 44.255H39.555V43.345H36.721C36.188 43.345 35.668 43.371 35.265 43.41V41.798C35.59 41.837 36.097 41.863 36.747 41.863H37.904V40.836H36.981C36.175 40.862 35.694 40.875 35.525 40.888V39.276C35.902 39.328 36.331 39.354 36.916 39.354H37.904V39.055C37.904 38.678 37.878 38.418 37.839 38.106H39.62C39.555 38.392 39.529 38.652 39.529 39.042V39.354H40.751C41.323 39.354 41.765 39.328 42.142 39.276V40.888C41.765 40.849 41.401 40.836 40.777 40.836H39.529V41.863H41.089C41.726 41.863 42.22 41.837 42.545 41.798V43.41C42.194 43.358 41.856 43.345 41.271 43.345H41.154V44.255C41.869 44.255 42.194 44.242 42.493 44.19V45.841C42.09 45.789 41.817 45.776 41.154 45.776V48.532C41.154 49.234 41.024 49.559 40.66 49.767C40.283 49.988 39.789 50.066 38.892 50.066C38.775 50.066 38.437 50.053 37.982 50.04C37.93 49.351 37.839 48.948 37.605 48.441C37.982 48.506 38.58 48.545 39.074 48.545C39.451 48.545 39.555 48.48 39.555 48.207V45.776H36.929C37.618 46.413 37.982 46.842 38.554 47.687L37.202 48.74C36.682 47.83 36.253 47.271 35.59 46.608L36.903 45.776ZM30.936 47.726V40.017C30.936 39.419 30.923 39.107 30.884 38.665C31.209 38.704 31.43 38.717 32.002 38.717H33.874C34.446 38.717 34.68 38.704 34.979 38.678C34.953 38.977 34.953 39.237 34.953 39.952V47.57C34.953 48.285 34.953 48.545 34.979 48.896H33.419V48.246H32.47V49.351H30.858C30.91 48.922 30.936 48.48 30.936 47.726ZM32.483 40.186V42.669H33.432V40.186H32.483ZM32.483 44.125V46.738H33.432V44.125H32.483ZM53.998 42.877L51.385 43.059C51.554 44.255 51.853 45.295 52.282 46.205C52.568 46.79 52.893 47.297 53.244 47.7C53.374 47.843 53.621 48.025 53.673 48.025C53.894 48.025 54.063 47.258 54.167 45.815C54.752 46.309 55.012 46.491 55.649 46.79C55.363 49.169 54.856 50.092 53.842 50.092C53.192 50.092 52.542 49.663 51.814 48.779C50.696 47.388 50.007 45.62 49.643 43.176L48.447 43.267C47.836 43.306 47.576 43.332 47.134 43.41L47.108 41.694C47.355 41.707 47.459 41.707 47.589 41.707C47.823 41.707 48.226 41.694 48.525 41.668L49.474 41.603C49.409 40.589 49.409 40.589 49.37 39.237C49.37 38.912 49.331 38.47 49.305 38.197L51.177 38.171C51.138 38.457 51.125 38.717 51.125 39.224C51.125 39.965 51.151 40.498 51.216 41.486L53.855 41.291C54.622 41.239 54.947 41.2 55.337 41.122L55.363 42.851C55.155 42.838 55.077 42.838 54.908 42.838C54.648 42.838 54.453 42.851 53.998 42.877ZM44.989 48.506V45.282C44.989 44.593 45.002 44.281 45.015 43.826C44.495 44.567 44.378 44.71 43.858 45.23C43.611 44.333 43.481 44.008 43.117 43.384C44.261 42.188 44.976 41.083 45.574 39.627C45.821 38.99 46.003 38.405 46.055 37.95L47.797 38.522C47.459 39.51 47.433 39.588 46.692 41.187V48.532C46.692 49.182 46.718 49.611 46.77 50.118H44.911C44.963 49.676 44.989 49.221 44.989 48.506ZM51.528 39.133L52.789 38.171C53.504 38.808 53.946 39.276 54.7 40.186L53.387 41.252C52.828 40.511 52.178 39.757 51.528 39.133Z" fill="#FDFDFD"/>
<path d="M4 50.3H56V50.95H4V50.3Z" fill="#FDFDFD"/>
<rect x="4" y="54.5" width="55.2" height="20.8" rx="10.4" fill="black"/>
<path d="M28.1369 63.66C27.6329 63.528 27.3209 63.348 26.9729 63C26.6009 62.616 26.3849 62.028 26.3849 61.416C26.3849 59.88 27.6809 58.908 29.7329 58.908C31.1849 58.908 32.2529 59.376 32.7689 60.216C32.9729 60.552 33.0929 60.984 33.0929 61.416C33.0929 62.532 32.4569 63.348 31.3649 63.66C31.9049 63.732 32.2649 63.888 32.6609 64.224C33.2249 64.68 33.5009 65.304 33.5009 66.096C33.5009 67.884 32.1569 68.868 29.6969 68.868C28.3049 68.868 27.3449 68.568 26.6609 67.908C26.2169 67.476 25.9649 66.828 25.9649 66.108C25.9649 65.268 26.2889 64.608 26.9489 64.14C27.3449 63.864 27.6449 63.744 28.1369 63.66ZM29.7329 60.204C28.6769 60.204 27.9929 60.744 27.9929 61.584C27.9929 62.46 28.6649 63.012 29.7569 63.012C30.8249 63.012 31.4729 62.472 31.4729 61.596C31.4729 60.744 30.8009 60.204 29.7329 60.204ZM29.7089 67.548C31.0529 67.548 31.8089 66.984 31.8089 65.976C31.8089 64.98 31.0289 64.38 29.7329 64.38C28.4369 64.38 27.6449 64.992 27.6449 65.988C27.6449 66.972 28.4129 67.548 29.7089 67.548ZM36.6319 68.664H34.8559C34.9279 68.184 34.9519 67.764 34.9519 67.116V60.624C34.9519 60.048 34.9279 59.616 34.8559 59.076C35.3719 59.1 35.7439 59.112 36.3799 59.112H38.8879C40.0519 59.112 40.8679 59.388 41.4439 59.964C41.9359 60.444 42.1879 61.164 42.1879 62.028C42.1879 62.94 41.9119 63.684 41.3839 64.236C40.7959 64.824 39.9799 65.1 38.8279 65.1H36.5359V67.104C36.5359 67.752 36.5599 68.208 36.6319 68.664ZM36.5359 63.72H38.8279C39.9319 63.72 40.5319 63.132 40.5319 62.076C40.5319 61.596 40.3999 61.2 40.1359 60.924C39.8599 60.624 39.4639 60.492 38.8279 60.492H36.5359V63.72Z" fill="white"/>
<g clip-path="url(#clip0_491_895)">
<path d="M86.7262 100.6L74.8918 88.8446V85.9057H49.7516V88.8446H49.7829L36.4457 100.6H86.7262Z" fill="white"/>
<path d="M86.7262 102.803H83.7676V105.742H39.373V102.803H36.4144V134.369H39.373V129.963H52.1988V134.369H55.1574V129.963H68.0041V134.369H70.9627V129.963H83.7676V134.369H86.7262V102.803ZM39.373 111.614V108.681H52.1988V111.63L39.373 111.614ZM55.1574 111.614V108.681H68.0041V111.63L55.1574 111.614ZM83.7676 111.614H70.9418V108.681H83.7676V111.614Z" fill="white"/>
</g>
<defs>
<clipPath id="clip0_491_895">
<rect width="59.1667" height="58.7722" fill="white" transform="translate(32 81.5)"/>
</clipPath>
</defs>
</svg>
