<svg width="104" height="150" viewBox="0 0 104 150" fill="none" xmlns="http://www.w3.org/2000/svg">
<rect y="0.5" width="100" height="149" rx="10" fill="#E66650"/>
<path d="M8.016 16.164H16.048C16.816 16.164 17.296 16.148 17.792 16.084C17.728 16.756 17.712 17.252 17.712 17.796V28.164C17.712 29.028 17.744 29.604 17.808 30.212H15.52V29.332H8.448V30.212H6.192C6.256 29.604 6.288 28.932 6.288 28.164V17.844C6.288 17.236 6.256 16.676 6.208 16.084C6.72 16.132 7.28 16.164 8.016 16.164ZM8.448 21.604H15.52V18.18H8.448V21.604ZM15.52 23.588H8.448V27.316H15.52V23.588ZM33.12 20.004H29.904C30.672 21.396 31.376 22.34 32.368 23.332C33.472 24.404 34.432 25.124 35.664 25.764C35.088 26.5 34.864 26.9 34.464 27.86C33.424 27.172 32.816 26.676 31.856 25.748V27.38C31.344 27.332 30.896 27.3 30.256 27.3H28.96V28.276C28.96 29.044 28.992 29.764 29.072 30.34H26.72C26.8 29.732 26.832 29.06 26.832 28.276V27.3H25.664C25.024 27.3 24.576 27.332 24.064 27.38V25.764C23.184 26.676 22.512 27.236 21.552 27.892C21.168 26.948 20.96 26.596 20.384 25.876C21.648 25.108 22.624 24.292 23.616 23.188C24.512 22.18 25.264 21.108 25.808 20.004H22.864C22.128 20.004 21.552 20.036 20.896 20.116V17.908C21.536 17.988 22.096 18.02 22.864 18.02H26.832V16.964C26.832 16.308 26.8 15.924 26.736 15.476H29.056C28.992 15.892 28.96 16.308 28.96 16.964V18.02H33.12C33.936 18.02 34.544 17.988 35.12 17.908V20.116C34.432 20.036 33.888 20.004 33.12 20.004ZM26.832 25.38V23.364C26.832 22.868 26.864 22.388 26.928 21.78C26.272 23.108 25.584 24.116 24.448 25.348C24.72 25.38 25.008 25.38 25.552 25.38H26.832ZM28.96 25.38H30.416C30.944 25.38 31.168 25.38 31.456 25.348C30.352 24.18 29.664 23.236 28.864 21.764C28.944 22.676 28.96 22.98 28.96 23.332V25.38ZM38.736 24.612L40.656 23.7C40.976 24.372 41.504 25.044 42.176 25.636C42.528 25.06 42.704 24.5 42.8 23.636H39.312C38.624 23.636 38.144 23.652 37.648 23.7C37.68 23.316 37.712 22.868 37.712 22.276V18.692C37.712 18.116 37.68 17.716 37.648 17.316C38.096 17.364 38.64 17.38 39.456 17.38H42.96V16.884C42.96 16.34 42.928 15.988 42.864 15.46H45.184C45.12 15.924 45.104 16.244 45.104 16.932V17.156C45.104 17.22 45.104 17.268 45.104 17.38H48.624C49.488 17.38 50.032 17.364 50.448 17.316C50.4 17.7 50.384 18.084 50.384 18.692V22.276C50.384 22.916 50.4 23.332 50.448 23.7C49.968 23.652 49.504 23.636 48.768 23.636H44.896C44.704 25.092 44.464 25.86 43.888 26.756C44.608 27.076 45.168 27.268 45.904 27.444C47.072 27.716 48.88 27.892 50.576 27.892C50.752 27.892 51.072 27.892 51.6 27.876C51.2 28.628 51.008 29.124 50.736 30.164C48.608 30.068 47.552 29.94 46.304 29.668C44.864 29.364 43.632 28.9 42.528 28.26C41.312 29.236 39.872 29.86 37.616 30.404C37.312 29.54 37.088 29.124 36.528 28.388C38.256 28.164 39.76 27.668 40.8 26.98C40.24 26.484 39.92 26.132 39.312 25.332C39.12 25.092 39.088 25.06 38.928 24.852C38.832 24.724 38.832 24.724 38.736 24.612ZM45.024 21.78H48.256V19.3H45.088C45.072 19.668 45.072 20.02 45.072 20.212C45.056 21.124 45.056 21.124 45.024 21.78ZM39.808 21.78H42.896C42.928 20.532 42.944 19.7 42.944 19.3H39.808V21.78Z" fill="#FDFDFD"/>
<path d="M4 30.58H52V31.38H4V30.58Z" fill="#FDFDFD"/>
<path d="M9.512 39.991V39.185C9.512 38.639 9.486 38.34 9.434 37.989H11.397C11.332 38.353 11.319 38.639 11.319 39.185V39.991H14.764C15.362 39.991 15.947 39.965 16.389 39.9V41.694C15.843 41.642 15.336 41.616 14.764 41.616H11.319V43.67H13.893C14.556 43.67 14.816 43.657 15.154 43.618C15.102 43.995 15.089 44.32 15.089 44.905V48.506C15.089 49.195 15.115 49.663 15.167 50.04H13.347V49.416H7.718V50.04H5.872C5.924 49.663 5.95 49.143 5.95 48.506V44.905C5.95 44.359 5.937 43.995 5.885 43.618C6.236 43.657 6.522 43.67 7.146 43.67H9.512V41.616H6.288C5.677 41.616 5.157 41.642 4.663 41.694V39.9C5.105 39.965 5.69 39.991 6.288 39.991H9.512ZM7.705 45.269V47.83H13.334V45.269H7.705ZM28.141 41.98V42.461C28.427 42.461 28.596 42.448 28.856 42.435C28.817 42.799 28.804 43.189 28.804 43.683V46.764C28.804 47.232 28.817 47.7 28.856 48.077C28.453 48.051 28.076 48.038 27.673 48.038H26.997C27.868 48.441 28.453 48.61 29.701 48.792C29.415 49.221 29.207 49.611 28.96 50.196C27.439 49.819 26.555 49.455 25.554 48.766L26.308 48.038H23.708L24.618 48.753C23.656 49.455 22.824 49.819 21.212 50.196C20.939 49.663 20.757 49.39 20.289 48.87C21.745 48.675 22.46 48.467 23.227 48.038H22.863C22.473 48.038 22.005 48.051 21.667 48.064C21.706 47.687 21.732 47.206 21.732 46.777V43.631C21.732 43.137 21.719 42.773 21.68 42.435C21.979 42.461 22.057 42.461 22.395 42.461V41.98H22.291C21.654 42.006 21.316 42.019 21.277 42.019V42.851C21.043 42.812 20.809 42.799 20.471 42.799H20.38V45.984C20.64 45.893 20.835 45.815 21.329 45.62V47.193C20.432 47.609 19.769 47.869 18.56 48.298C18.313 48.389 17.845 48.584 17.715 48.662L17.429 46.842C17.767 46.79 18.079 46.712 18.755 46.517V42.799H18.521C18.17 42.799 17.858 42.825 17.546 42.864V41.213C17.845 41.265 18.157 41.278 18.534 41.278H18.755V39.614C18.755 38.925 18.729 38.561 18.677 38.158H20.458C20.393 38.587 20.38 38.925 20.38 39.614V41.278H20.458C20.705 41.278 20.861 41.278 21.017 41.265V40.667C21.368 40.719 21.68 40.732 22.291 40.732H22.395C22.395 40.524 22.382 40.42 22.343 40.186H23.864C23.825 40.342 23.812 40.485 23.812 40.732H24.514V39.978H22.707C22.148 39.978 21.875 39.991 21.485 40.03V38.652C21.888 38.704 22.278 38.73 22.928 38.73H24.462C24.462 38.405 24.449 38.262 24.397 38.028H26.1C26.061 38.249 26.048 38.405 26.048 38.73H27.686C28.297 38.73 28.713 38.704 29.168 38.652V40.017C28.791 39.991 28.44 39.978 27.933 39.978H25.996V40.732H26.698C26.698 40.511 26.685 40.355 26.646 40.173H28.193C28.154 40.342 28.141 40.485 28.141 40.732H28.297C28.843 40.732 29.155 40.719 29.571 40.667V42.045C29.22 42.006 28.817 41.98 28.297 41.98H28.141ZM26.698 41.98H23.812V42.461H26.698V41.98ZM23.279 43.644V44.125H27.244V43.644H23.279ZM23.279 45.035V45.477H27.244V45.035H23.279ZM23.279 46.426V46.881H27.244V46.426H23.279ZM36.903 45.776H36.682C36.227 45.776 35.707 45.802 35.265 45.841V44.19C35.577 44.242 36.006 44.255 36.721 44.255H39.555V43.345H36.721C36.188 43.345 35.668 43.371 35.265 43.41V41.798C35.59 41.837 36.097 41.863 36.747 41.863H37.904V40.836H36.981C36.175 40.862 35.694 40.875 35.525 40.888V39.276C35.902 39.328 36.331 39.354 36.916 39.354H37.904V39.055C37.904 38.678 37.878 38.418 37.839 38.106H39.62C39.555 38.392 39.529 38.652 39.529 39.042V39.354H40.751C41.323 39.354 41.765 39.328 42.142 39.276V40.888C41.765 40.849 41.401 40.836 40.777 40.836H39.529V41.863H41.089C41.726 41.863 42.22 41.837 42.545 41.798V43.41C42.194 43.358 41.856 43.345 41.271 43.345H41.154V44.255C41.869 44.255 42.194 44.242 42.493 44.19V45.841C42.09 45.789 41.817 45.776 41.154 45.776V48.532C41.154 49.234 41.024 49.559 40.66 49.767C40.283 49.988 39.789 50.066 38.892 50.066C38.775 50.066 38.437 50.053 37.982 50.04C37.93 49.351 37.839 48.948 37.605 48.441C37.982 48.506 38.58 48.545 39.074 48.545C39.451 48.545 39.555 48.48 39.555 48.207V45.776H36.929C37.618 46.413 37.982 46.842 38.554 47.687L37.202 48.74C36.682 47.83 36.253 47.271 35.59 46.608L36.903 45.776ZM30.936 47.726V40.017C30.936 39.419 30.923 39.107 30.884 38.665C31.209 38.704 31.43 38.717 32.002 38.717H33.874C34.446 38.717 34.68 38.704 34.979 38.678C34.953 38.977 34.953 39.237 34.953 39.952V47.57C34.953 48.285 34.953 48.545 34.979 48.896H33.419V48.246H32.47V49.351H30.858C30.91 48.922 30.936 48.48 30.936 47.726ZM32.483 40.186V42.669H33.432V40.186H32.483ZM32.483 44.125V46.738H33.432V44.125H32.483ZM53.998 42.877L51.385 43.059C51.554 44.255 51.853 45.295 52.282 46.205C52.568 46.79 52.893 47.297 53.244 47.7C53.374 47.843 53.621 48.025 53.673 48.025C53.894 48.025 54.063 47.258 54.167 45.815C54.752 46.309 55.012 46.491 55.649 46.79C55.363 49.169 54.856 50.092 53.842 50.092C53.192 50.092 52.542 49.663 51.814 48.779C50.696 47.388 50.007 45.62 49.643 43.176L48.447 43.267C47.836 43.306 47.576 43.332 47.134 43.41L47.108 41.694C47.355 41.707 47.459 41.707 47.589 41.707C47.823 41.707 48.226 41.694 48.525 41.668L49.474 41.603C49.409 40.589 49.409 40.589 49.37 39.237C49.37 38.912 49.331 38.47 49.305 38.197L51.177 38.171C51.138 38.457 51.125 38.717 51.125 39.224C51.125 39.965 51.151 40.498 51.216 41.486L53.855 41.291C54.622 41.239 54.947 41.2 55.337 41.122L55.363 42.851C55.155 42.838 55.077 42.838 54.908 42.838C54.648 42.838 54.453 42.851 53.998 42.877ZM44.989 48.506V45.282C44.989 44.593 45.002 44.281 45.015 43.826C44.495 44.567 44.378 44.71 43.858 45.23C43.611 44.333 43.481 44.008 43.117 43.384C44.261 42.188 44.976 41.083 45.574 39.627C45.821 38.99 46.003 38.405 46.055 37.95L47.797 38.522C47.459 39.51 47.433 39.588 46.692 41.187V48.532C46.692 49.182 46.718 49.611 46.77 50.118H44.911C44.963 49.676 44.989 49.221 44.989 48.506ZM51.528 39.133L52.789 38.171C53.504 38.808 53.946 39.276 54.7 40.186L53.387 41.252C52.828 40.511 52.178 39.757 51.528 39.133Z" fill="#FDFDFD"/>
<path d="M4 50.3H56V50.95H4V50.3Z" fill="#FDFDFD"/>
<rect x="4" y="54.5" width="55.2" height="20.8" rx="10.4" fill="black"/>
<path d="M25.2394 68.664H21.3874C20.4514 68.664 20.2594 68.676 19.8394 68.724C19.9114 68.04 19.9954 67.62 20.1514 67.188C20.4754 66.312 21.0154 65.544 21.7954 64.836C22.2154 64.464 22.5754 64.188 23.7754 63.384C24.8794 62.628 25.2154 62.232 25.2154 61.62C25.2154 60.804 24.5794 60.3 23.5594 60.3C22.8634 60.3 22.3354 60.54 22.0354 61.008C21.8314 61.296 21.7474 61.56 21.6634 62.112L19.9474 61.908C20.1154 60.996 20.3314 60.504 20.7754 59.988C21.3754 59.292 22.3234 58.92 23.5234 58.92C25.6234 58.92 26.9194 59.928 26.9194 61.572C26.9194 62.364 26.6554 62.94 26.0674 63.492C25.7314 63.804 25.6114 63.9 24.0514 64.968C23.5234 65.34 22.9234 65.844 22.6234 66.168C22.2634 66.552 22.1194 66.792 21.9394 67.248H25.2994C26.0554 67.248 26.6554 67.212 27.0514 67.152V68.736C26.4874 68.688 26.0074 68.664 25.2394 68.664ZM33.7824 68.664H29.9304C28.9944 68.664 28.8024 68.676 28.3824 68.724C28.4544 68.04 28.5384 67.62 28.6944 67.188C29.0184 66.312 29.5584 65.544 30.3384 64.836C30.7584 64.464 31.1184 64.188 32.3184 63.384C33.4224 62.628 33.7584 62.232 33.7584 61.62C33.7584 60.804 33.1224 60.3 32.1024 60.3C31.4064 60.3 30.8784 60.54 30.5784 61.008C30.3744 61.296 30.2904 61.56 30.2064 62.112L28.4904 61.908C28.6584 60.996 28.8744 60.504 29.3184 59.988C29.9184 59.292 30.8664 58.92 32.0664 58.92C34.1664 58.92 35.4624 59.928 35.4624 61.572C35.4624 62.364 35.1984 62.94 34.6104 63.492C34.2744 63.804 34.1544 63.9 32.5944 64.968C32.0664 65.34 31.4664 65.844 31.1664 66.168C30.8064 66.552 30.6624 66.792 30.4824 67.248H33.8424C34.5984 67.248 35.1984 67.212 35.5944 67.152V68.736C35.0304 68.688 34.5504 68.664 33.7824 68.664ZM38.9053 68.664H37.1293C37.2013 68.184 37.2253 67.764 37.2253 67.116V60.624C37.2253 60.048 37.2013 59.616 37.1293 59.076C37.6453 59.1 38.0173 59.112 38.6533 59.112H41.1613C42.3253 59.112 43.1413 59.388 43.7173 59.964C44.2093 60.444 44.4613 61.164 44.4613 62.028C44.4613 62.94 44.1853 63.684 43.6573 64.236C43.0693 64.824 42.2533 65.1 41.1013 65.1H38.8093V67.104C38.8093 67.752 38.8333 68.208 38.9053 68.664ZM38.8093 63.72H41.1013C42.2053 63.72 42.8053 63.132 42.8053 62.076C42.8053 61.596 42.6733 61.2 42.4093 60.924C42.1333 60.624 41.7373 60.492 41.1013 60.492H38.8093V63.72Z" fill="white"/>
<g clip-path="url(#clip0_128_1769)">
<path d="M68.7294 103.062C68.5468 103.223 68.3589 103.378 68.2076 103.554L61.946 109.774L64.0332 111.848L70.2948 105.628C71.644 104.289 73.4728 103.537 75.3797 103.537C77.2866 103.537 79.1154 104.289 80.4646 105.628L86.7262 111.848L88.8134 109.774L82.5518 103.554C81.1049 102.127 79.2587 101.166 77.2539 100.796C75.2491 100.427 73.1786 100.665 71.3123 101.481L63.741 93.9397C62.582 92.7882 61.206 91.8749 59.6916 91.2517C58.1771 90.6285 56.554 90.3078 54.9148 90.3078C53.2756 90.3078 51.6524 90.6285 50.138 91.2517C48.6236 91.8749 47.2476 92.7882 46.0886 93.9397L34.7029 105.255L36.7901 107.328L48.1758 96.0129C49.9639 94.2411 52.3865 93.2461 54.9122 93.2461C57.4379 93.2461 59.8605 94.2411 61.6486 96.0129L68.7294 103.062Z" fill="#FDFDFD"/>
<path d="M60.7615 122.68L55.6635 127.091H61.5807V131.409H82.2909V127.091H88.2028L83.1101 122.68H60.7615Z" fill="#FDFDFD"/>
<path d="M40.2496 122.68L34.9534 127.081H39.3939V131.409H49.7516V127.081H54.1868L48.8906 122.68H40.2496Z" fill="#FDFDFD"/>
<path d="M57.1454 120.317H86.7262L71.9332 112.972L57.1454 120.317Z" fill="#FDFDFD"/>
<path d="M43.4639 106.416V115.015L37.3693 120.317H51.7762L45.6816 115.015V106.416H43.4639Z" fill="#FDFDFD"/>
</g>
<defs>
<clipPath id="clip0_128_1769">
<rect width="59.1667" height="58.7722" fill="white" transform="translate(32 81.5)"/>
</clipPath>
</defs>
</svg>
