<svg width="104" height="150" viewBox="0 0 104 150" fill="none" xmlns="http://www.w3.org/2000/svg">
<rect y="0.5" width="100" height="149" rx="10" fill="#E66650"/>
<path d="M8.016 16.164H16.048C16.816 16.164 17.296 16.148 17.792 16.084C17.728 16.756 17.712 17.252 17.712 17.796V28.164C17.712 29.028 17.744 29.604 17.808 30.212H15.52V29.332H8.448V30.212H6.192C6.256 29.604 6.288 28.932 6.288 28.164V17.844C6.288 17.236 6.256 16.676 6.208 16.084C6.72 16.132 7.28 16.164 8.016 16.164ZM8.448 21.604H15.52V18.18H8.448V21.604ZM15.52 23.588H8.448V27.316H15.52V23.588ZM33.12 20.004H29.904C30.672 21.396 31.376 22.34 32.368 23.332C33.472 24.404 34.432 25.124 35.664 25.764C35.088 26.5 34.864 26.9 34.464 27.86C33.424 27.172 32.816 26.676 31.856 25.748V27.38C31.344 27.332 30.896 27.3 30.256 27.3H28.96V28.276C28.96 29.044 28.992 29.764 29.072 30.34H26.72C26.8 29.732 26.832 29.06 26.832 28.276V27.3H25.664C25.024 27.3 24.576 27.332 24.064 27.38V25.764C23.184 26.676 22.512 27.236 21.552 27.892C21.168 26.948 20.96 26.596 20.384 25.876C21.648 25.108 22.624 24.292 23.616 23.188C24.512 22.18 25.264 21.108 25.808 20.004H22.864C22.128 20.004 21.552 20.036 20.896 20.116V17.908C21.536 17.988 22.096 18.02 22.864 18.02H26.832V16.964C26.832 16.308 26.8 15.924 26.736 15.476H29.056C28.992 15.892 28.96 16.308 28.96 16.964V18.02H33.12C33.936 18.02 34.544 17.988 35.12 17.908V20.116C34.432 20.036 33.888 20.004 33.12 20.004ZM26.832 25.38V23.364C26.832 22.868 26.864 22.388 26.928 21.78C26.272 23.108 25.584 24.116 24.448 25.348C24.72 25.38 25.008 25.38 25.552 25.38H26.832ZM28.96 25.38H30.416C30.944 25.38 31.168 25.38 31.456 25.348C30.352 24.18 29.664 23.236 28.864 21.764C28.944 22.676 28.96 22.98 28.96 23.332V25.38ZM38.736 24.612L40.656 23.7C40.976 24.372 41.504 25.044 42.176 25.636C42.528 25.06 42.704 24.5 42.8 23.636H39.312C38.624 23.636 38.144 23.652 37.648 23.7C37.68 23.316 37.712 22.868 37.712 22.276V18.692C37.712 18.116 37.68 17.716 37.648 17.316C38.096 17.364 38.64 17.38 39.456 17.38H42.96V16.884C42.96 16.34 42.928 15.988 42.864 15.46H45.184C45.12 15.924 45.104 16.244 45.104 16.932V17.156C45.104 17.22 45.104 17.268 45.104 17.38H48.624C49.488 17.38 50.032 17.364 50.448 17.316C50.4 17.7 50.384 18.084 50.384 18.692V22.276C50.384 22.916 50.4 23.332 50.448 23.7C49.968 23.652 49.504 23.636 48.768 23.636H44.896C44.704 25.092 44.464 25.86 43.888 26.756C44.608 27.076 45.168 27.268 45.904 27.444C47.072 27.716 48.88 27.892 50.576 27.892C50.752 27.892 51.072 27.892 51.6 27.876C51.2 28.628 51.008 29.124 50.736 30.164C48.608 30.068 47.552 29.94 46.304 29.668C44.864 29.364 43.632 28.9 42.528 28.26C41.312 29.236 39.872 29.86 37.616 30.404C37.312 29.54 37.088 29.124 36.528 28.388C38.256 28.164 39.76 27.668 40.8 26.98C40.24 26.484 39.92 26.132 39.312 25.332C39.12 25.092 39.088 25.06 38.928 24.852C38.832 24.724 38.832 24.724 38.736 24.612ZM45.024 21.78H48.256V19.3H45.088C45.072 19.668 45.072 20.02 45.072 20.212C45.056 21.124 45.056 21.124 45.024 21.78ZM39.808 21.78H42.896C42.928 20.532 42.944 19.7 42.944 19.3H39.808V21.78Z" fill="#FDFDFD"/>
<path d="M4 30.58H52V31.38H4V30.58Z" fill="#FDFDFD"/>
<path d="M5.001 38.171H6.886C6.821 38.613 6.808 38.951 6.808 39.601V48.363C6.808 49.13 6.821 49.52 6.886 50.014H5.001C5.053 49.481 5.079 49 5.079 48.311V39.627C5.079 39.081 5.053 38.704 5.001 38.171ZM8.277 48.259V39.874C8.277 39.289 8.264 38.86 8.238 38.431C8.654 38.47 9.031 38.483 9.694 38.483H14.621C15.271 38.483 15.687 38.47 16.077 38.431C16.025 38.847 16.012 39.237 16.012 39.783V48.324C16.012 48.883 16.038 49.429 16.077 49.897H14.27V49.169H10.006V49.897H8.212C8.264 49.481 8.277 49.195 8.277 48.259ZM10.032 40.108V42.89H14.257V40.108H10.032ZM10.019 44.515V47.544H14.231V44.515H10.019ZM21.277 40.199H19.639C18.716 40.199 18.352 40.212 17.754 40.277V38.522C18.209 38.574 18.729 38.6 19.613 38.6H27.491C28.323 38.6 28.804 38.574 29.298 38.522V40.277C28.778 40.225 28.284 40.199 27.504 40.199H23.136C22.85 41.161 22.551 41.876 22.044 42.773H27.088C27.634 42.773 27.998 42.76 28.466 42.708C28.427 43.098 28.401 43.761 28.401 44.086V48.35C28.401 48.883 28.427 49.455 28.492 49.962H26.646V49.273H21.719V49.949H19.899C19.951 49.455 19.977 48.922 19.977 48.363V46.218C19.977 46.179 19.977 46.049 19.977 45.828C19.977 45.815 19.99 45.763 19.99 45.685C19.99 45.633 19.99 45.581 20.003 45.49C19.483 46.127 18.885 46.673 18.209 47.18C17.936 46.53 17.637 46.036 17.195 45.529C18.404 44.788 19.327 43.904 20.133 42.695C20.679 41.889 20.965 41.265 21.277 40.199ZM21.706 44.333V47.726H26.659V44.333H21.706ZM37.228 44.19H35.642C35.239 44.632 34.901 44.944 34.329 45.373H35.174C35.551 45.373 35.85 45.36 36.123 45.334C36.097 45.581 36.084 45.802 36.084 46.348V49.026C36.084 49.455 36.097 49.728 36.136 50.027H34.563V49.546H33.211V50.118H31.521C31.56 49.741 31.586 49.312 31.586 48.922V47.089L30.988 47.388C30.832 46.881 30.676 46.543 30.273 45.88C31.703 45.425 32.652 44.931 33.549 44.19H32.041C31.378 44.19 31.001 44.203 30.559 44.255V42.643C30.962 42.682 31.378 42.708 32.041 42.708H34.849C34.992 42.474 35.057 42.357 35.187 42.058C34.953 42.058 34.927 42.058 34.81 42.058H32.496C32.093 42.058 31.625 42.071 31.222 42.097C31.261 41.759 31.274 41.395 31.274 40.979V39.458C31.274 39.029 31.261 38.652 31.222 38.314C31.625 38.353 31.963 38.366 32.548 38.366H34.81C35.408 38.366 35.746 38.353 36.097 38.314C36.071 38.587 36.058 38.847 36.058 39.302L36.071 41.161V41.551L36.773 41.629C36.773 41.434 36.773 41.382 36.773 41.161V39.302C36.773 38.86 36.76 38.613 36.747 38.314C37.085 38.353 37.423 38.366 38.021 38.366H40.4C40.985 38.366 41.31 38.353 41.726 38.314C41.687 38.626 41.674 38.964 41.674 39.458V40.979C41.674 41.447 41.687 41.785 41.726 42.097C41.323 42.071 40.842 42.058 40.452 42.058H38.021C37.592 42.058 37.397 42.058 37.033 42.084C36.877 42.383 36.825 42.474 36.695 42.708H40.946C41.557 42.708 42.012 42.682 42.415 42.63V44.268C41.934 44.216 41.518 44.19 40.946 44.19H39.321C40.127 44.892 41.271 45.425 42.74 45.776C42.428 46.296 42.259 46.686 42.064 47.297C41.661 47.128 41.557 47.089 41.375 46.998V48.857C41.375 49.247 41.401 49.754 41.44 50.118H39.763V49.546H38.281V50.118H36.682C36.721 49.806 36.734 49.481 36.734 49.117V46.348C36.734 45.854 36.721 45.646 36.695 45.334C36.968 45.36 37.267 45.373 37.644 45.373H38.515C37.943 44.944 37.618 44.645 37.228 44.19ZM32.873 39.666V40.823H34.511V39.666H32.873ZM38.359 39.679V40.823H40.062V39.679H38.359ZM33.185 46.725V48.142H34.563V46.725H33.185ZM38.281 46.725V48.142H39.776V46.725H38.281ZM49.903 45.776H49.682C49.227 45.776 48.707 45.802 48.265 45.841V44.19C48.577 44.242 49.006 44.255 49.721 44.255H52.555V43.345H49.721C49.188 43.345 48.668 43.371 48.265 43.41V41.798C48.59 41.837 49.097 41.863 49.747 41.863H50.904V40.836H49.981C49.175 40.862 48.694 40.875 48.525 40.888V39.276C48.902 39.328 49.331 39.354 49.916 39.354H50.904V39.055C50.904 38.678 50.878 38.418 50.839 38.106H52.62C52.555 38.392 52.529 38.652 52.529 39.042V39.354H53.751C54.323 39.354 54.765 39.328 55.142 39.276V40.888C54.765 40.849 54.401 40.836 53.777 40.836H52.529V41.863H54.089C54.726 41.863 55.22 41.837 55.545 41.798V43.41C55.194 43.358 54.856 43.345 54.271 43.345H54.154V44.255C54.869 44.255 55.194 44.242 55.493 44.19V45.841C55.09 45.789 54.817 45.776 54.154 45.776V48.532C54.154 49.234 54.024 49.559 53.66 49.767C53.283 49.988 52.789 50.066 51.892 50.066C51.775 50.066 51.437 50.053 50.982 50.04C50.93 49.351 50.839 48.948 50.605 48.441C50.982 48.506 51.58 48.545 52.074 48.545C52.451 48.545 52.555 48.48 52.555 48.207V45.776H49.929C50.618 46.413 50.982 46.842 51.554 47.687L50.202 48.74C49.682 47.83 49.253 47.271 48.59 46.608L49.903 45.776ZM43.936 47.726V40.017C43.936 39.419 43.923 39.107 43.884 38.665C44.209 38.704 44.43 38.717 45.002 38.717H46.874C47.446 38.717 47.68 38.704 47.979 38.678C47.953 38.977 47.953 39.237 47.953 39.952V47.57C47.953 48.285 47.953 48.545 47.979 48.896H46.419V48.246H45.47V49.351H43.858C43.91 48.922 43.936 48.48 43.936 47.726ZM45.483 40.186V42.669H46.432V40.186H45.483ZM45.483 44.125V46.738H46.432V44.125H45.483ZM66.998 42.877L64.385 43.059C64.554 44.255 64.853 45.295 65.282 46.205C65.568 46.79 65.893 47.297 66.244 47.7C66.374 47.843 66.621 48.025 66.673 48.025C66.894 48.025 67.063 47.258 67.167 45.815C67.752 46.309 68.012 46.491 68.649 46.79C68.363 49.169 67.856 50.092 66.842 50.092C66.192 50.092 65.542 49.663 64.814 48.779C63.696 47.388 63.007 45.62 62.643 43.176L61.447 43.267C60.836 43.306 60.576 43.332 60.134 43.41L60.108 41.694C60.355 41.707 60.459 41.707 60.589 41.707C60.823 41.707 61.226 41.694 61.525 41.668L62.474 41.603C62.409 40.589 62.409 40.589 62.37 39.237C62.37 38.912 62.331 38.47 62.305 38.197L64.177 38.171C64.138 38.457 64.125 38.717 64.125 39.224C64.125 39.965 64.151 40.498 64.216 41.486L66.855 41.291C67.622 41.239 67.947 41.2 68.337 41.122L68.363 42.851C68.155 42.838 68.077 42.838 67.908 42.838C67.648 42.838 67.453 42.851 66.998 42.877ZM57.989 48.506V45.282C57.989 44.593 58.002 44.281 58.015 43.826C57.495 44.567 57.378 44.71 56.858 45.23C56.611 44.333 56.481 44.008 56.117 43.384C57.261 42.188 57.976 41.083 58.574 39.627C58.821 38.99 59.003 38.405 59.055 37.95L60.797 38.522C60.459 39.51 60.433 39.588 59.692 41.187V48.532C59.692 49.182 59.718 49.611 59.77 50.118H57.911C57.963 49.676 57.989 49.221 57.989 48.506ZM64.528 39.133L65.789 38.171C66.504 38.808 66.946 39.276 67.7 40.186L66.387 41.252C65.828 40.511 65.178 39.757 64.528 39.133Z" fill="#FDFDFD"/>
<path d="M4 50.3H69V50.95H4V50.3Z" fill="#FDFDFD"/>
<rect x="4" y="54.5" width="55.2" height="20.8" rx="10.4" fill="black"/>
<path d="M31.2389 61.068L29.6189 61.452C29.3069 60.576 28.8629 60.24 28.0109 60.24C27.1589 60.24 26.5349 60.66 26.1269 61.488C25.8269 62.112 25.6949 62.688 25.6349 63.612C26.2829 62.736 26.9909 62.412 28.2029 62.412C29.4269 62.412 30.4589 62.94 30.9869 63.84C31.2749 64.308 31.4189 64.932 31.4189 65.64C31.4189 67.536 29.9789 68.88 27.9389 68.88C26.9789 68.88 26.0909 68.592 25.5029 68.088C24.6149 67.32 24.1109 65.88 24.1109 64.068C24.1109 62.592 24.4829 61.176 25.0949 60.36C25.8029 59.4 26.7629 58.932 28.0229 58.932C29.0549 58.932 29.9069 59.244 30.4829 59.844C30.7949 60.168 30.9749 60.444 31.2389 61.068ZM27.9269 63.72C26.7509 63.72 25.8749 64.536 25.8749 65.64C25.8749 66.732 26.7269 67.536 27.9029 67.536C28.5989 67.536 29.2109 67.224 29.5469 66.696C29.7269 66.42 29.8229 66.024 29.8229 65.604C29.8229 64.416 29.1149 63.72 27.9269 63.72ZM34.6339 68.664H32.8579C32.9299 68.184 32.9539 67.764 32.9539 67.116V60.624C32.9539 60.048 32.9299 59.616 32.8579 59.076C33.3739 59.1 33.7459 59.112 34.3819 59.112H36.8899C38.0539 59.112 38.8699 59.388 39.4459 59.964C39.9379 60.444 40.1899 61.164 40.1899 62.028C40.1899 62.94 39.9139 63.684 39.3859 64.236C38.7979 64.824 37.9819 65.1 36.8299 65.1H34.5379V67.104C34.5379 67.752 34.5619 68.208 34.6339 68.664ZM34.5379 63.72H36.8299C37.9339 63.72 38.5339 63.132 38.5339 62.076C38.5339 61.596 38.4019 61.2 38.1379 60.924C37.8619 60.624 37.4659 60.492 36.8299 60.492H34.5379V63.72Z" fill="white"/>
<g clip-path="url(#clip0_491_877)">
<path d="M73.4151 115.294H40.8758V118.233H73.4151V115.294Z" fill="white"/>
<path d="M82.2909 122.639H57.1454V125.578H82.2909V122.639Z" fill="white"/>
<path d="M68.9798 129.984H49.7516V132.922H68.9798V129.984Z" fill="white"/>
<path d="M79.3323 105.006C79.3243 102.444 78.7541 99.9145 77.6614 97.5939C76.5687 95.2733 74.9797 93.2172 73.0053 91.569C71.0308 89.9207 68.7183 88.7199 66.2289 88.0502C63.7394 87.3805 61.1329 87.258 58.591 87.6913C56.049 88.1245 53.6327 89.1031 51.5104 90.5588C49.3881 92.0145 47.6109 93.9124 46.3025 96.1202C44.9941 98.328 44.186 100.793 43.9346 103.342C43.6832 105.892 43.9944 108.466 44.8466 110.884H78.32C78.9911 108.996 79.3334 107.008 79.3323 105.006Z" fill="white"/>
</g>
<defs>
<clipPath id="clip0_491_877">
<rect width="59.1667" height="58.7722" fill="white" transform="translate(32 81.5)"/>
</clipPath>
</defs>
</svg>
