<svg width="104" height="150" viewBox="0 0 104 150" fill="none" xmlns="http://www.w3.org/2000/svg">
<rect y="0.5" width="100" height="149" rx="10" fill="#E66650"/>
<path d="M8.016 16.164H16.048C16.816 16.164 17.296 16.148 17.792 16.084C17.728 16.756 17.712 17.252 17.712 17.796V28.164C17.712 29.028 17.744 29.604 17.808 30.212H15.52V29.332H8.448V30.212H6.192C6.256 29.604 6.288 28.932 6.288 28.164V17.844C6.288 17.236 6.256 16.676 6.208 16.084C6.72 16.132 7.28 16.164 8.016 16.164ZM8.448 21.604H15.52V18.18H8.448V21.604ZM15.52 23.588H8.448V27.316H15.52V23.588ZM33.12 20.004H29.904C30.672 21.396 31.376 22.34 32.368 23.332C33.472 24.404 34.432 25.124 35.664 25.764C35.088 26.5 34.864 26.9 34.464 27.86C33.424 27.172 32.816 26.676 31.856 25.748V27.38C31.344 27.332 30.896 27.3 30.256 27.3H28.96V28.276C28.96 29.044 28.992 29.764 29.072 30.34H26.72C26.8 29.732 26.832 29.06 26.832 28.276V27.3H25.664C25.024 27.3 24.576 27.332 24.064 27.38V25.764C23.184 26.676 22.512 27.236 21.552 27.892C21.168 26.948 20.96 26.596 20.384 25.876C21.648 25.108 22.624 24.292 23.616 23.188C24.512 22.18 25.264 21.108 25.808 20.004H22.864C22.128 20.004 21.552 20.036 20.896 20.116V17.908C21.536 17.988 22.096 18.02 22.864 18.02H26.832V16.964C26.832 16.308 26.8 15.924 26.736 15.476H29.056C28.992 15.892 28.96 16.308 28.96 16.964V18.02H33.12C33.936 18.02 34.544 17.988 35.12 17.908V20.116C34.432 20.036 33.888 20.004 33.12 20.004ZM26.832 25.38V23.364C26.832 22.868 26.864 22.388 26.928 21.78C26.272 23.108 25.584 24.116 24.448 25.348C24.72 25.38 25.008 25.38 25.552 25.38H26.832ZM28.96 25.38H30.416C30.944 25.38 31.168 25.38 31.456 25.348C30.352 24.18 29.664 23.236 28.864 21.764C28.944 22.676 28.96 22.98 28.96 23.332V25.38ZM38.736 24.612L40.656 23.7C40.976 24.372 41.504 25.044 42.176 25.636C42.528 25.06 42.704 24.5 42.8 23.636H39.312C38.624 23.636 38.144 23.652 37.648 23.7C37.68 23.316 37.712 22.868 37.712 22.276V18.692C37.712 18.116 37.68 17.716 37.648 17.316C38.096 17.364 38.64 17.38 39.456 17.38H42.96V16.884C42.96 16.34 42.928 15.988 42.864 15.46H45.184C45.12 15.924 45.104 16.244 45.104 16.932V17.156C45.104 17.22 45.104 17.268 45.104 17.38H48.624C49.488 17.38 50.032 17.364 50.448 17.316C50.4 17.7 50.384 18.084 50.384 18.692V22.276C50.384 22.916 50.4 23.332 50.448 23.7C49.968 23.652 49.504 23.636 48.768 23.636H44.896C44.704 25.092 44.464 25.86 43.888 26.756C44.608 27.076 45.168 27.268 45.904 27.444C47.072 27.716 48.88 27.892 50.576 27.892C50.752 27.892 51.072 27.892 51.6 27.876C51.2 28.628 51.008 29.124 50.736 30.164C48.608 30.068 47.552 29.94 46.304 29.668C44.864 29.364 43.632 28.9 42.528 28.26C41.312 29.236 39.872 29.86 37.616 30.404C37.312 29.54 37.088 29.124 36.528 28.388C38.256 28.164 39.76 27.668 40.8 26.98C40.24 26.484 39.92 26.132 39.312 25.332C39.12 25.092 39.088 25.06 38.928 24.852C38.832 24.724 38.832 24.724 38.736 24.612ZM45.024 21.78H48.256V19.3H45.088C45.072 19.668 45.072 20.02 45.072 20.212C45.056 21.124 45.056 21.124 45.024 21.78ZM39.808 21.78H42.896C42.928 20.532 42.944 19.7 42.944 19.3H39.808V21.78Z" fill="#FDFDFD"/>
<path d="M4 30.58H52V31.38H4V30.58Z" fill="#FDFDFD"/>
<path d="M10.24 48.376L10.214 48.402C9.72 47.973 9.278 47.7 8.771 47.531C9.382 46.426 9.733 44.97 9.837 42.929C9.447 42.435 9.122 42.123 8.693 41.824C8.693 42.084 8.706 42.448 8.732 42.838C8.433 42.799 8.368 42.799 7.874 42.799H6.509C6.47 43.267 6.418 43.878 6.379 44.112H7.783C8.264 44.112 8.563 44.099 8.732 44.073C8.693 44.359 8.667 44.632 8.641 45.607C8.602 46.504 8.433 48.09 8.329 48.545C8.056 49.624 7.562 49.949 6.171 49.949C5.794 49.949 5.391 49.936 5.066 49.936C5.027 49.143 4.988 48.844 4.767 48.207C5.365 48.272 5.794 48.311 5.976 48.311C6.561 48.311 6.73 48.194 6.821 47.726C6.912 47.323 6.99 46.439 7.029 45.594H5.508C5.209 45.594 4.936 45.607 4.559 45.633C4.832 44.099 4.936 42.994 4.975 41.317C5.248 41.343 5.443 41.356 5.976 41.356H7.081V40.004H5.742C5.222 40.004 4.962 40.017 4.65 40.056V38.431C4.988 38.483 5.261 38.496 5.872 38.496H7.666C8.199 38.496 8.472 38.483 8.732 38.444C8.706 38.795 8.693 39.055 8.693 39.497V41.694C9.538 40.797 10.37 39.042 10.5 37.898L12.242 38.262C12.164 38.444 12.164 38.47 12.06 38.756C12.008 38.912 11.878 39.263 11.657 39.822H14.92C15.635 39.822 16.012 39.809 16.441 39.744V41.395C15.882 41.343 15.466 41.33 14.985 41.33H13.62V48.415C13.62 49.624 13.152 49.988 11.618 49.988C11.41 49.988 11.059 49.975 10.513 49.936C10.487 49.26 10.422 48.935 10.24 48.376ZM10.11 42.682L11.397 42.929C11.241 45.412 10.903 47.063 10.279 48.298C10.695 48.376 11.254 48.428 11.566 48.428C11.904 48.428 11.982 48.363 11.982 48.09V41.33H10.968C10.695 41.863 10.474 42.201 10.11 42.682ZM14.14 42.929L15.622 42.578C15.817 44.697 16.142 46.088 16.753 47.466C16.233 47.778 15.791 48.129 15.336 48.597C14.959 47.648 14.816 47.232 14.647 46.491C14.413 45.503 14.296 44.658 14.14 42.929ZM22.772 42.045H20.276C19.769 43.111 19.223 43.93 18.508 44.749C18.092 44.086 17.884 43.839 17.338 43.371C18.287 42.422 19.028 41.109 19.457 39.653C19.6 39.172 19.678 38.821 19.717 38.444L21.459 38.873C21.433 38.964 21.433 38.964 21.342 39.211C21.303 39.315 21.303 39.328 21.199 39.653C21.134 39.874 21.03 40.186 20.926 40.498H22.772V39.718C22.772 38.964 22.746 38.535 22.681 38.067H24.605C24.54 38.496 24.527 38.938 24.527 39.705V40.498H27.036C27.725 40.498 28.362 40.472 28.921 40.42V42.123C28.284 42.071 27.751 42.045 27.088 42.045H24.527V44.216H26.62C27.283 44.216 27.842 44.19 28.336 44.138V45.841C27.803 45.789 27.27 45.763 26.633 45.763H24.527V48.181H27.452C28.219 48.181 28.817 48.155 29.389 48.09V49.845C28.739 49.78 28.193 49.754 27.491 49.754H19.717C19.015 49.754 18.391 49.78 17.741 49.845V48.09C18.326 48.155 18.963 48.181 19.665 48.181H22.772V45.763H20.939C20.289 45.763 19.769 45.789 19.275 45.841V44.151C19.73 44.203 20.172 44.216 20.913 44.216H22.772V42.045ZM36.903 45.776H36.682C36.227 45.776 35.707 45.802 35.265 45.841V44.19C35.577 44.242 36.006 44.255 36.721 44.255H39.555V43.345H36.721C36.188 43.345 35.668 43.371 35.265 43.41V41.798C35.59 41.837 36.097 41.863 36.747 41.863H37.904V40.836H36.981C36.175 40.862 35.694 40.875 35.525 40.888V39.276C35.902 39.328 36.331 39.354 36.916 39.354H37.904V39.055C37.904 38.678 37.878 38.418 37.839 38.106H39.62C39.555 38.392 39.529 38.652 39.529 39.042V39.354H40.751C41.323 39.354 41.765 39.328 42.142 39.276V40.888C41.765 40.849 41.401 40.836 40.777 40.836H39.529V41.863H41.089C41.726 41.863 42.22 41.837 42.545 41.798V43.41C42.194 43.358 41.856 43.345 41.271 43.345H41.154V44.255C41.869 44.255 42.194 44.242 42.493 44.19V45.841C42.09 45.789 41.817 45.776 41.154 45.776V48.532C41.154 49.234 41.024 49.559 40.66 49.767C40.283 49.988 39.789 50.066 38.892 50.066C38.775 50.066 38.437 50.053 37.982 50.04C37.93 49.351 37.839 48.948 37.605 48.441C37.982 48.506 38.58 48.545 39.074 48.545C39.451 48.545 39.555 48.48 39.555 48.207V45.776H36.929C37.618 46.413 37.982 46.842 38.554 47.687L37.202 48.74C36.682 47.83 36.253 47.271 35.59 46.608L36.903 45.776ZM30.936 47.726V40.017C30.936 39.419 30.923 39.107 30.884 38.665C31.209 38.704 31.43 38.717 32.002 38.717H33.874C34.446 38.717 34.68 38.704 34.979 38.678C34.953 38.977 34.953 39.237 34.953 39.952V47.57C34.953 48.285 34.953 48.545 34.979 48.896H33.419V48.246H32.47V49.351H30.858C30.91 48.922 30.936 48.48 30.936 47.726ZM32.483 40.186V42.669H33.432V40.186H32.483ZM32.483 44.125V46.738H33.432V44.125H32.483ZM53.998 42.877L51.385 43.059C51.554 44.255 51.853 45.295 52.282 46.205C52.568 46.79 52.893 47.297 53.244 47.7C53.374 47.843 53.621 48.025 53.673 48.025C53.894 48.025 54.063 47.258 54.167 45.815C54.752 46.309 55.012 46.491 55.649 46.79C55.363 49.169 54.856 50.092 53.842 50.092C53.192 50.092 52.542 49.663 51.814 48.779C50.696 47.388 50.007 45.62 49.643 43.176L48.447 43.267C47.836 43.306 47.576 43.332 47.134 43.41L47.108 41.694C47.355 41.707 47.459 41.707 47.589 41.707C47.823 41.707 48.226 41.694 48.525 41.668L49.474 41.603C49.409 40.589 49.409 40.589 49.37 39.237C49.37 38.912 49.331 38.47 49.305 38.197L51.177 38.171C51.138 38.457 51.125 38.717 51.125 39.224C51.125 39.965 51.151 40.498 51.216 41.486L53.855 41.291C54.622 41.239 54.947 41.2 55.337 41.122L55.363 42.851C55.155 42.838 55.077 42.838 54.908 42.838C54.648 42.838 54.453 42.851 53.998 42.877ZM44.989 48.506V45.282C44.989 44.593 45.002 44.281 45.015 43.826C44.495 44.567 44.378 44.71 43.858 45.23C43.611 44.333 43.481 44.008 43.117 43.384C44.261 42.188 44.976 41.083 45.574 39.627C45.821 38.99 46.003 38.405 46.055 37.95L47.797 38.522C47.459 39.51 47.433 39.588 46.692 41.187V48.532C46.692 49.182 46.718 49.611 46.77 50.118H44.911C44.963 49.676 44.989 49.221 44.989 48.506ZM51.528 39.133L52.789 38.171C53.504 38.808 53.946 39.276 54.7 40.186L53.387 41.252C52.828 40.511 52.178 39.757 51.528 39.133Z" fill="#FDFDFD"/>
<path d="M4 50.3H56V50.95H4V50.3Z" fill="#FDFDFD"/>
<rect x="4" y="54.5" width="55.2" height="20.8" rx="10.4" fill="black"/>
<path d="M27.4474 64.992V66.528C27.0034 66.468 26.7514 66.456 26.2474 66.444H25.8154V67.296C25.8154 67.908 25.8394 68.22 25.9114 68.664H24.2074C24.2794 68.244 24.3034 67.872 24.3034 67.272V66.444H20.9794C20.2714 66.444 19.8874 66.456 19.4794 66.492V65.016C19.8874 64.572 20.0194 64.416 20.4394 63.912L23.2834 60.432C23.8114 59.796 24.0034 59.544 24.2794 59.112H25.8994C25.8274 59.808 25.8154 60.228 25.8154 61.14V65.076H26.2354C26.7154 65.076 27.0034 65.052 27.4474 64.992ZM24.3154 65.088V62.604C24.3154 62.04 24.3274 61.656 24.3754 61.164C24.1354 61.512 23.9914 61.704 23.5594 62.232L21.2554 65.088H24.3154ZM31.9944 68.856C30.9744 68.856 30.1104 68.52 29.4744 67.884C29.1144 67.524 28.8384 67.104 28.6824 66.672C28.3704 65.82 28.2144 64.884 28.2144 63.912C28.2144 62.64 28.5024 61.32 28.9464 60.588C29.5944 59.508 30.6744 58.92 32.0064 58.92C33.0264 58.92 33.9024 59.256 34.5384 59.892C34.8984 60.252 35.1744 60.672 35.3304 61.104C35.6424 61.944 35.7984 62.904 35.7984 63.888C35.7984 65.364 35.4744 66.66 34.9104 67.44C34.2384 68.376 33.2424 68.856 31.9944 68.856ZM32.0064 67.464C32.5344 67.464 33.0024 67.284 33.3024 66.96C33.8424 66.396 34.1424 65.28 34.1424 63.876C34.1424 62.484 33.8424 61.392 33.3024 60.804C33.0144 60.48 32.5344 60.3 31.9944 60.3C31.4184 60.3 30.9984 60.492 30.6504 60.912C30.1224 61.536 29.8584 62.52 29.8584 63.828C29.8584 65.088 30.0864 66.132 30.4704 66.684C30.8424 67.212 31.3464 67.464 32.0064 67.464ZM38.9053 68.664H37.1293C37.2013 68.184 37.2253 67.764 37.2253 67.116V60.624C37.2253 60.048 37.2013 59.616 37.1293 59.076C37.6453 59.1 38.0173 59.112 38.6533 59.112H41.1613C42.3253 59.112 43.1413 59.388 43.7173 59.964C44.2093 60.444 44.4613 61.164 44.4613 62.028C44.4613 62.94 44.1853 63.684 43.6573 64.236C43.0693 64.824 42.2533 65.1 41.1013 65.1H38.8093V67.104C38.8093 67.752 38.8333 68.208 38.9053 68.664ZM38.8093 63.72H41.1013C42.2053 63.72 42.8053 63.132 42.8053 62.076C42.8053 61.596 42.6733 61.2 42.4093 60.924C42.1333 60.624 41.7373 60.492 41.1013 60.492H38.8093V63.72Z" fill="white"/>
<g clip-path="url(#clip0_128_1753)">
<path d="M51.2283 91.7834L33.4871 127.045H42.3838L51.2283 109.432L51.2335 127.045H70.4304L51.2283 91.7834Z" fill="white"/>
<path d="M89.6848 127.045L70.4617 91.7938L53.7277 91.742L72.9507 127.045H89.6848Z" fill="white"/>
</g>
<defs>
<clipPath id="clip0_128_1753">
<rect width="59.1667" height="58.7722" fill="white" transform="translate(32 81.5)"/>
</clipPath>
</defs>
</svg>
