<svg width="24" height="24" viewBox="0 0 24 24" fill="none" xmlns="http://www.w3.org/2000/svg">
<path d="M10.7441 1.00195C9.81384 1.00195 8.99684 1.657 8.79297 2.5625V2.56641L8.50391 3.85742C7.85686 4.13828 7.25658 4.486 6.70117 4.90234L5.43164 4.50391C4.54314 4.22542 3.5665 4.60641 3.10156 5.41406L1.84766 7.58594C1.38109 8.39183 1.53856 9.42838 2.22461 10.0586L3.11719 10.8809C3.06992 11.2515 3 11.6145 3 12C3 12.3851 3.07163 12.7484 3.11914 13.1191L2.22461 13.9414C1.54072 14.5698 1.37973 15.6092 1.8457 16.4141L3.09961 18.5879H3.10156C3.5664 19.3908 4.54382 19.7744 5.43164 19.4961L6.70117 19.0977C7.25576 19.5132 7.85596 19.8599 8.50195 20.1406L8.79102 21.4355V21.4375C8.99439 22.3435 9.81426 22.998 10.7422 22.998H13.2539C14.1842 22.998 15.0012 22.343 15.2051 21.4375V21.4355L15.4941 20.1426C16.1412 19.8617 16.7415 19.514 17.2969 19.0977L18.5664 19.4961C19.4521 19.7737 20.432 19.3909 20.8965 18.5859L22.1504 16.4141C22.6164 15.6092 22.4573 14.5698 21.7734 13.9414L20.8809 13.1191C20.9284 12.7484 21 12.3851 21 12C21 11.6155 20.9282 11.2529 20.8809 10.8828L21.7754 10.0605C22.4593 9.43211 22.6183 8.3908 22.1523 7.58594L20.8984 5.41406V5.41211C20.4336 4.6092 19.4562 4.22759 18.5684 4.50586L17.2969 4.9043C16.7419 4.48862 16.1425 4.14006 15.4961 3.85938L15.207 2.56445C15.0037 1.65849 14.1838 1.00195 13.2559 1.00195H10.7441ZM11.1445 3.50195H12.8555L13.168 4.90234C13.2156 5.11455 13.3177 5.31067 13.4643 5.47131C13.611 5.63196 13.7969 5.75158 14.0039 5.81836C14.8779 6.10109 15.6706 6.56932 16.3457 7.17773C16.507 7.32348 16.7036 7.42464 16.9159 7.47123C17.1283 7.51781 17.3491 7.5082 17.5566 7.44336L18.9336 7.00977L19.7891 8.49219L18.7324 9.46094C18.5722 9.60808 18.4532 9.79448 18.3871 10.0017C18.321 10.2089 18.3101 10.4298 18.3555 10.6426C18.4493 11.0838 18.5 11.5366 18.5 12C18.5 12.4634 18.4493 12.9162 18.3555 13.3574C18.3102 13.5697 18.321 13.7901 18.3867 13.9969C18.4525 14.2038 18.5709 14.3899 18.7305 14.5371L19.7871 15.5098L18.9316 16.9902L17.5547 16.5586C17.3471 16.4931 17.1259 16.483 16.9132 16.5293C16.7005 16.5755 16.5035 16.6765 16.3418 16.8223C15.6685 17.4298 14.8762 17.8988 14.002 18.1816C13.7947 18.2486 13.6086 18.3685 13.462 18.5295C13.3154 18.6905 13.2133 18.887 13.166 19.0996L12.8535 20.498H11.1426L10.8301 19.0996C10.7829 18.8873 10.6812 18.6909 10.5349 18.5299C10.3887 18.3689 10.203 18.2489 9.99609 18.1816C9.12206 17.8989 8.32937 17.4307 7.6543 16.8223C7.49279 16.6768 7.29615 16.5761 7.0838 16.5298C6.87145 16.4836 6.65071 16.4935 6.44336 16.5586L5.06445 16.9902L4.21094 15.5098L5.26758 14.5391C5.42778 14.3919 5.54682 14.2055 5.61293 13.9983C5.67904 13.7911 5.68993 13.5702 5.64453 13.3574C5.5507 12.9162 5.5 12.4634 5.5 12C5.5 11.5366 5.55111 11.0829 5.64453 10.6387C5.68921 10.4265 5.67796 10.2064 5.61187 9.99993C5.54579 9.79345 5.42714 9.60771 5.26758 9.46094L4.21094 8.49023L5.06445 7.00977L6.44336 7.44141C6.65098 7.50687 6.87211 7.51698 7.08484 7.47073C7.29757 7.42449 7.49454 7.32349 7.65625 7.17773C8.32954 6.57017 9.12183 6.10116 9.99609 5.81836C10.2031 5.75158 10.389 5.63196 10.5357 5.47131C10.6823 5.31067 10.7844 5.11455 10.832 4.90234L11.1445 3.50195ZM12 8C10.7708 8 9.69133 8.50594 9.00391 9.2793C8.31648 10.0526 8 11.0347 8 12C8 12.9653 8.31648 13.9474 9.00391 14.7207C9.69133 15.4941 10.7708 16 12 16C13.2292 16 14.3087 15.4941 14.9961 14.7207C15.6835 13.9474 16 12.9653 16 12C16 11.0347 15.6835 10.0526 14.9961 9.2793C14.3087 8.50594 13.2292 8 12 8ZM12 10.5C12.6042 10.5 12.8997 10.6816 13.1289 10.9395C13.3581 11.1974 13.5 11.5903 13.5 12C13.5 12.4097 13.3581 12.8026 13.1289 13.0605C12.8997 13.3184 12.6042 13.5 12 13.5C11.3958 13.5 11.1003 13.3184 10.8711 13.0605C10.6419 12.8026 10.5 12.4097 10.5 12C10.5 11.5903 10.6419 11.1974 10.8711 10.9395C11.1003 10.6816 11.3958 10.5 12 10.5Z" fill="#D6D6D6"/>
</svg>
