<svg width="26" height="26" viewBox="0 0 26 26" fill="none" xmlns="http://www.w3.org/2000/svg">
<g id="lv1/icon/tab_search copy">
<path id="Mask" fill-rule="evenodd" clip-rule="evenodd" d="M22.5715 24.2857C23.509 24.2857 24.2857 23.509 24.2857 22.5715C24.2857 22.1161 24.0982 21.6741 23.7902 21.3661L19.1964 16.7723C20.2813 15.2054 20.8572 13.3304 20.8572 11.4286C20.8572 6.21876 16.6384 2 11.4286 2C6.21876 2 2 6.21876 2 11.4286C2 16.6384 6.21876 20.8572 11.4286 20.8572C13.3304 20.8572 15.2054 20.2813 16.7723 19.1964L21.3661 23.7768C21.6741 24.0982 22.1161 24.2857 22.5715 24.2857ZM11.4286 5.42858C14.7366 5.42858 17.4286 8.12054 17.4286 11.4286C17.4286 14.7366 14.7366 17.4286 11.4286 17.4286C8.12054 17.4286 5.42858 14.7366 5.42858 11.4286C5.42858 8.12054 8.12054 5.42858 11.4286 5.42858Z" fill="#D6D6D6"/>
</g>
</svg>
