<svg width="104" height="150" viewBox="0 0 104 150" fill="none" xmlns="http://www.w3.org/2000/svg">
<rect y="0.5" width="100" height="149" rx="10" fill="#E66650"/>
<path d="M8.016 16.164H16.048C16.816 16.164 17.296 16.148 17.792 16.084C17.728 16.756 17.712 17.252 17.712 17.796V28.164C17.712 29.028 17.744 29.604 17.808 30.212H15.52V29.332H8.448V30.212H6.192C6.256 29.604 6.288 28.932 6.288 28.164V17.844C6.288 17.236 6.256 16.676 6.208 16.084C6.72 16.132 7.28 16.164 8.016 16.164ZM8.448 21.604H15.52V18.18H8.448V21.604ZM15.52 23.588H8.448V27.316H15.52V23.588ZM33.12 20.004H29.904C30.672 21.396 31.376 22.34 32.368 23.332C33.472 24.404 34.432 25.124 35.664 25.764C35.088 26.5 34.864 26.9 34.464 27.86C33.424 27.172 32.816 26.676 31.856 25.748V27.38C31.344 27.332 30.896 27.3 30.256 27.3H28.96V28.276C28.96 29.044 28.992 29.764 29.072 30.34H26.72C26.8 29.732 26.832 29.06 26.832 28.276V27.3H25.664C25.024 27.3 24.576 27.332 24.064 27.38V25.764C23.184 26.676 22.512 27.236 21.552 27.892C21.168 26.948 20.96 26.596 20.384 25.876C21.648 25.108 22.624 24.292 23.616 23.188C24.512 22.18 25.264 21.108 25.808 20.004H22.864C22.128 20.004 21.552 20.036 20.896 20.116V17.908C21.536 17.988 22.096 18.02 22.864 18.02H26.832V16.964C26.832 16.308 26.8 15.924 26.736 15.476H29.056C28.992 15.892 28.96 16.308 28.96 16.964V18.02H33.12C33.936 18.02 34.544 17.988 35.12 17.908V20.116C34.432 20.036 33.888 20.004 33.12 20.004ZM26.832 25.38V23.364C26.832 22.868 26.864 22.388 26.928 21.78C26.272 23.108 25.584 24.116 24.448 25.348C24.72 25.38 25.008 25.38 25.552 25.38H26.832ZM28.96 25.38H30.416C30.944 25.38 31.168 25.38 31.456 25.348C30.352 24.18 29.664 23.236 28.864 21.764C28.944 22.676 28.96 22.98 28.96 23.332V25.38ZM38.736 24.612L40.656 23.7C40.976 24.372 41.504 25.044 42.176 25.636C42.528 25.06 42.704 24.5 42.8 23.636H39.312C38.624 23.636 38.144 23.652 37.648 23.7C37.68 23.316 37.712 22.868 37.712 22.276V18.692C37.712 18.116 37.68 17.716 37.648 17.316C38.096 17.364 38.64 17.38 39.456 17.38H42.96V16.884C42.96 16.34 42.928 15.988 42.864 15.46H45.184C45.12 15.924 45.104 16.244 45.104 16.932V17.156C45.104 17.22 45.104 17.268 45.104 17.38H48.624C49.488 17.38 50.032 17.364 50.448 17.316C50.4 17.7 50.384 18.084 50.384 18.692V22.276C50.384 22.916 50.4 23.332 50.448 23.7C49.968 23.652 49.504 23.636 48.768 23.636H44.896C44.704 25.092 44.464 25.86 43.888 26.756C44.608 27.076 45.168 27.268 45.904 27.444C47.072 27.716 48.88 27.892 50.576 27.892C50.752 27.892 51.072 27.892 51.6 27.876C51.2 28.628 51.008 29.124 50.736 30.164C48.608 30.068 47.552 29.94 46.304 29.668C44.864 29.364 43.632 28.9 42.528 28.26C41.312 29.236 39.872 29.86 37.616 30.404C37.312 29.54 37.088 29.124 36.528 28.388C38.256 28.164 39.76 27.668 40.8 26.98C40.24 26.484 39.92 26.132 39.312 25.332C39.12 25.092 39.088 25.06 38.928 24.852C38.832 24.724 38.832 24.724 38.736 24.612ZM45.024 21.78H48.256V19.3H45.088C45.072 19.668 45.072 20.02 45.072 20.212C45.056 21.124 45.056 21.124 45.024 21.78ZM39.808 21.78H42.896C42.928 20.532 42.944 19.7 42.944 19.3H39.808V21.78Z" fill="#FDFDFD"/>
<path d="M4 30.58H52V31.38H4V30.58Z" fill="#FDFDFD"/>
<path d="M9.512 39.991V39.185C9.512 38.639 9.486 38.34 9.434 37.989H11.397C11.332 38.353 11.319 38.639 11.319 39.185V39.991H14.764C15.362 39.991 15.947 39.965 16.389 39.9V41.694C15.843 41.642 15.336 41.616 14.764 41.616H11.319V43.67H13.893C14.556 43.67 14.816 43.657 15.154 43.618C15.102 43.995 15.089 44.32 15.089 44.905V48.506C15.089 49.195 15.115 49.663 15.167 50.04H13.347V49.416H7.718V50.04H5.872C5.924 49.663 5.95 49.143 5.95 48.506V44.905C5.95 44.359 5.937 43.995 5.885 43.618C6.236 43.657 6.522 43.67 7.146 43.67H9.512V41.616H6.288C5.677 41.616 5.157 41.642 4.663 41.694V39.9C5.105 39.965 5.69 39.991 6.288 39.991H9.512ZM7.705 45.269V47.83H13.334V45.269H7.705ZM28.141 41.98V42.461C28.427 42.461 28.596 42.448 28.856 42.435C28.817 42.799 28.804 43.189 28.804 43.683V46.764C28.804 47.232 28.817 47.7 28.856 48.077C28.453 48.051 28.076 48.038 27.673 48.038H26.997C27.868 48.441 28.453 48.61 29.701 48.792C29.415 49.221 29.207 49.611 28.96 50.196C27.439 49.819 26.555 49.455 25.554 48.766L26.308 48.038H23.708L24.618 48.753C23.656 49.455 22.824 49.819 21.212 50.196C20.939 49.663 20.757 49.39 20.289 48.87C21.745 48.675 22.46 48.467 23.227 48.038H22.863C22.473 48.038 22.005 48.051 21.667 48.064C21.706 47.687 21.732 47.206 21.732 46.777V43.631C21.732 43.137 21.719 42.773 21.68 42.435C21.979 42.461 22.057 42.461 22.395 42.461V41.98H22.291C21.654 42.006 21.316 42.019 21.277 42.019V42.851C21.043 42.812 20.809 42.799 20.471 42.799H20.38V45.984C20.64 45.893 20.835 45.815 21.329 45.62V47.193C20.432 47.609 19.769 47.869 18.56 48.298C18.313 48.389 17.845 48.584 17.715 48.662L17.429 46.842C17.767 46.79 18.079 46.712 18.755 46.517V42.799H18.521C18.17 42.799 17.858 42.825 17.546 42.864V41.213C17.845 41.265 18.157 41.278 18.534 41.278H18.755V39.614C18.755 38.925 18.729 38.561 18.677 38.158H20.458C20.393 38.587 20.38 38.925 20.38 39.614V41.278H20.458C20.705 41.278 20.861 41.278 21.017 41.265V40.667C21.368 40.719 21.68 40.732 22.291 40.732H22.395C22.395 40.524 22.382 40.42 22.343 40.186H23.864C23.825 40.342 23.812 40.485 23.812 40.732H24.514V39.978H22.707C22.148 39.978 21.875 39.991 21.485 40.03V38.652C21.888 38.704 22.278 38.73 22.928 38.73H24.462C24.462 38.405 24.449 38.262 24.397 38.028H26.1C26.061 38.249 26.048 38.405 26.048 38.73H27.686C28.297 38.73 28.713 38.704 29.168 38.652V40.017C28.791 39.991 28.44 39.978 27.933 39.978H25.996V40.732H26.698C26.698 40.511 26.685 40.355 26.646 40.173H28.193C28.154 40.342 28.141 40.485 28.141 40.732H28.297C28.843 40.732 29.155 40.719 29.571 40.667V42.045C29.22 42.006 28.817 41.98 28.297 41.98H28.141ZM26.698 41.98H23.812V42.461H26.698V41.98ZM23.279 43.644V44.125H27.244V43.644H23.279ZM23.279 45.035V45.477H27.244V45.035H23.279ZM23.279 46.426V46.881H27.244V46.426H23.279ZM36.903 45.776H36.682C36.227 45.776 35.707 45.802 35.265 45.841V44.19C35.577 44.242 36.006 44.255 36.721 44.255H39.555V43.345H36.721C36.188 43.345 35.668 43.371 35.265 43.41V41.798C35.59 41.837 36.097 41.863 36.747 41.863H37.904V40.836H36.981C36.175 40.862 35.694 40.875 35.525 40.888V39.276C35.902 39.328 36.331 39.354 36.916 39.354H37.904V39.055C37.904 38.678 37.878 38.418 37.839 38.106H39.62C39.555 38.392 39.529 38.652 39.529 39.042V39.354H40.751C41.323 39.354 41.765 39.328 42.142 39.276V40.888C41.765 40.849 41.401 40.836 40.777 40.836H39.529V41.863H41.089C41.726 41.863 42.22 41.837 42.545 41.798V43.41C42.194 43.358 41.856 43.345 41.271 43.345H41.154V44.255C41.869 44.255 42.194 44.242 42.493 44.19V45.841C42.09 45.789 41.817 45.776 41.154 45.776V48.532C41.154 49.234 41.024 49.559 40.66 49.767C40.283 49.988 39.789 50.066 38.892 50.066C38.775 50.066 38.437 50.053 37.982 50.04C37.93 49.351 37.839 48.948 37.605 48.441C37.982 48.506 38.58 48.545 39.074 48.545C39.451 48.545 39.555 48.48 39.555 48.207V45.776H36.929C37.618 46.413 37.982 46.842 38.554 47.687L37.202 48.74C36.682 47.83 36.253 47.271 35.59 46.608L36.903 45.776ZM30.936 47.726V40.017C30.936 39.419 30.923 39.107 30.884 38.665C31.209 38.704 31.43 38.717 32.002 38.717H33.874C34.446 38.717 34.68 38.704 34.979 38.678C34.953 38.977 34.953 39.237 34.953 39.952V47.57C34.953 48.285 34.953 48.545 34.979 48.896H33.419V48.246H32.47V49.351H30.858C30.91 48.922 30.936 48.48 30.936 47.726ZM32.483 40.186V42.669H33.432V40.186H32.483ZM32.483 44.125V46.738H33.432V44.125H32.483ZM53.998 42.877L51.385 43.059C51.554 44.255 51.853 45.295 52.282 46.205C52.568 46.79 52.893 47.297 53.244 47.7C53.374 47.843 53.621 48.025 53.673 48.025C53.894 48.025 54.063 47.258 54.167 45.815C54.752 46.309 55.012 46.491 55.649 46.79C55.363 49.169 54.856 50.092 53.842 50.092C53.192 50.092 52.542 49.663 51.814 48.779C50.696 47.388 50.007 45.62 49.643 43.176L48.447 43.267C47.836 43.306 47.576 43.332 47.134 43.41L47.108 41.694C47.355 41.707 47.459 41.707 47.589 41.707C47.823 41.707 48.226 41.694 48.525 41.668L49.474 41.603C49.409 40.589 49.409 40.589 49.37 39.237C49.37 38.912 49.331 38.47 49.305 38.197L51.177 38.171C51.138 38.457 51.125 38.717 51.125 39.224C51.125 39.965 51.151 40.498 51.216 41.486L53.855 41.291C54.622 41.239 54.947 41.2 55.337 41.122L55.363 42.851C55.155 42.838 55.077 42.838 54.908 42.838C54.648 42.838 54.453 42.851 53.998 42.877ZM44.989 48.506V45.282C44.989 44.593 45.002 44.281 45.015 43.826C44.495 44.567 44.378 44.71 43.858 45.23C43.611 44.333 43.481 44.008 43.117 43.384C44.261 42.188 44.976 41.083 45.574 39.627C45.821 38.99 46.003 38.405 46.055 37.95L47.797 38.522C47.459 39.51 47.433 39.588 46.692 41.187V48.532C46.692 49.182 46.718 49.611 46.77 50.118H44.911C44.963 49.676 44.989 49.221 44.989 48.506ZM51.528 39.133L52.789 38.171C53.504 38.808 53.946 39.276 54.7 40.186L53.387 41.252C52.828 40.511 52.178 39.757 51.528 39.133Z" fill="#FDFDFD"/>
<path d="M4 50.3H56V50.95H4V50.3Z" fill="#FDFDFD"/>
<rect x="4" y="54.5" width="55.2" height="20.8" rx="10.4" fill="black"/>
<path d="M20.133 63.66C19.629 63.528 19.317 63.348 18.969 63C18.597 62.616 18.381 62.028 18.381 61.416C18.381 59.88 19.677 58.908 21.729 58.908C23.181 58.908 24.249 59.376 24.765 60.216C24.969 60.552 25.089 60.984 25.089 61.416C25.089 62.532 24.453 63.348 23.361 63.66C23.901 63.732 24.261 63.888 24.657 64.224C25.221 64.68 25.497 65.304 25.497 66.096C25.497 67.884 24.153 68.868 21.693 68.868C20.301 68.868 19.341 68.568 18.657 67.908C18.213 67.476 17.961 66.828 17.961 66.108C17.961 65.268 18.285 64.608 18.945 64.14C19.341 63.864 19.641 63.744 20.133 63.66ZM21.729 60.204C20.673 60.204 19.989 60.744 19.989 61.584C19.989 62.46 20.661 63.012 21.753 63.012C22.821 63.012 23.469 62.472 23.469 61.596C23.469 60.744 22.797 60.204 21.729 60.204ZM21.705 67.548C23.049 67.548 23.805 66.984 23.805 65.976C23.805 64.98 23.025 64.38 21.729 64.38C20.433 64.38 19.641 64.992 19.641 65.988C19.641 66.972 20.409 67.548 21.705 67.548ZM30.26 68.856C29.24 68.856 28.376 68.52 27.74 67.884C27.38 67.524 27.104 67.104 26.948 66.672C26.636 65.82 26.48 64.884 26.48 63.912C26.48 62.64 26.768 61.32 27.212 60.588C27.86 59.508 28.94 58.92 30.272 58.92C31.292 58.92 32.168 59.256 32.804 59.892C33.164 60.252 33.44 60.672 33.596 61.104C33.908 61.944 34.064 62.904 34.064 63.888C34.064 65.364 33.74 66.66 33.176 67.44C32.504 68.376 31.508 68.856 30.26 68.856ZM30.272 67.464C30.8 67.464 31.268 67.284 31.568 66.96C32.108 66.396 32.408 65.28 32.408 63.876C32.408 62.484 32.108 61.392 31.568 60.804C31.28 60.48 30.8 60.3 30.26 60.3C29.684 60.3 29.264 60.492 28.916 60.912C28.388 61.536 28.124 62.52 28.124 63.828C28.124 65.088 28.352 66.132 28.736 66.684C29.108 67.212 29.612 67.464 30.272 67.464ZM40.531 63.276H40.699C40.915 62.7 40.975 62.532 41.131 62.004H40.831C40.483 62.004 40.171 62.016 39.895 62.052V60.828C40.183 60.864 40.459 60.876 40.855 60.876H41.455C41.575 60.396 41.575 60.396 41.671 59.94H40.891C40.315 59.94 40.003 59.952 39.631 60V58.728C40.039 58.764 40.435 58.788 40.975 58.788H44.635C45.247 58.788 45.643 58.764 45.967 58.728V60C45.595 59.952 45.283 59.94 44.695 59.94H42.967C42.847 60.396 42.775 60.708 42.727 60.876H44.155C44.575 60.876 44.851 60.864 45.103 60.828C45.067 61.092 45.055 61.32 45.055 61.764V63.276C45.631 63.276 45.787 63.264 46.147 63.204V64.488C45.751 64.44 45.475 64.428 44.971 64.428H40.531C39.979 64.428 39.703 64.44 39.343 64.488V63.216C39.703 63.264 39.931 63.276 40.531 63.276ZM41.995 63.276H43.819V62.004H42.415C42.247 62.592 42.199 62.724 41.995 63.276ZM35.479 59.856V58.692C35.779 58.74 35.995 58.752 36.475 58.752H38.095C38.575 58.752 38.791 58.74 39.091 58.692V59.856C38.707 59.82 38.623 59.82 38.095 59.82H36.475C36.043 59.82 35.779 59.832 35.479 59.856ZM35.083 61.596V60.348C35.371 60.396 35.599 60.408 36.043 60.408H38.311C38.815 60.408 39.055 60.396 39.331 60.36V61.596C39.067 61.56 38.887 61.548 38.371 61.548H36.043C35.623 61.548 35.371 61.56 35.083 61.596ZM35.503 63.264V62.148C35.743 62.172 35.899 62.184 36.295 62.184H38.311C38.707 62.184 38.863 62.172 39.079 62.148V63.264C38.779 63.228 38.707 63.228 38.311 63.228H36.295C35.911 63.228 35.743 63.24 35.503 63.264ZM35.503 64.932V63.828C35.743 63.852 35.899 63.864 36.295 63.864H38.311C38.707 63.864 38.863 63.852 39.079 63.828V64.932C38.779 64.896 38.707 64.896 38.287 64.896H36.283C35.923 64.896 35.731 64.908 35.503 64.932ZM35.455 68.316V66.456C35.455 66.084 35.443 65.808 35.395 65.508C35.695 65.544 35.971 65.556 36.319 65.556H38.371C38.839 65.556 38.971 65.556 39.175 65.52C39.151 65.736 39.139 65.94 39.139 66.384V68.388C39.139 68.832 39.151 69.012 39.187 69.324H38.011V68.916H36.619V69.48H35.383C35.431 69.108 35.455 68.736 35.455 68.316ZM36.631 66.576V67.848H38.011V66.576H36.631ZM39.979 68.292V65.928C39.979 65.568 39.967 65.34 39.943 65.076C40.243 65.1 40.483 65.112 40.963 65.112H44.551C45.079 65.112 45.283 65.1 45.523 65.076C45.487 65.328 45.475 65.64 45.475 66.036V68.304C45.475 68.808 45.499 69.192 45.535 69.492H44.167V68.964H41.263V69.504H39.931C39.967 69.168 39.979 68.772 39.979 68.292ZM41.263 66.228V67.788H44.167V66.228H41.263Z" fill="white"/>
<g clip-path="url(#clip0_128_1488)">
<path d="M68.7293 103.062C68.5467 103.223 68.3588 103.378 68.2075 103.554L61.9459 109.774L64.0331 111.848L70.2947 105.628C71.6439 104.289 73.4728 103.537 75.3796 103.537C77.2865 103.537 79.1154 104.289 80.4646 105.628L86.7261 111.848L88.8133 109.774L82.5517 103.554C81.1048 102.127 79.2586 101.166 77.2538 100.796C75.249 100.427 73.1785 100.665 71.3122 101.481L63.7409 93.9397C62.5819 92.7882 61.2059 91.8749 59.6915 91.2517C58.1771 90.6285 56.5539 90.3078 54.9147 90.3078C53.2755 90.3078 51.6524 90.6285 50.138 91.2517C48.6235 91.8749 47.2475 92.7882 46.0885 93.9397L34.7029 105.255L36.7901 107.328L48.1757 96.0129C49.9638 94.2411 52.3864 93.2461 54.9121 93.2461C57.4378 93.2461 59.8604 94.2411 61.6485 96.0129L68.7293 103.062Z" fill="#FDFDFD"/>
<path d="M60.7615 122.68L55.6636 127.091H61.5808V131.409H82.2909V127.091H88.2029L83.1101 122.68H60.7615Z" fill="#FDFDFD"/>
<path d="M40.2496 122.68L34.9534 127.081H39.3939V131.409H49.7516V127.081H54.1868L48.8906 122.68H40.2496Z" fill="#FDFDFD"/>
<path d="M57.1455 120.317H86.7262L71.9333 112.972L57.1455 120.317Z" fill="#FDFDFD"/>
<path d="M43.464 106.416V115.015L37.3694 120.317H51.7762L45.6816 115.015V106.416H43.464Z" fill="#FDFDFD"/>
</g>
<defs>
<clipPath id="clip0_128_1488">
<rect width="59.1667" height="58.7722" fill="white" transform="translate(32 81.5)"/>
</clipPath>
</defs>
</svg>
