<svg width="104" height="150" viewBox="0 0 104 150" fill="none" xmlns="http://www.w3.org/2000/svg">
<rect y="0.5" width="100" height="149" rx="10" fill="#E66650"/>
<path d="M8.016 16.164H16.048C16.816 16.164 17.296 16.148 17.792 16.084C17.728 16.756 17.712 17.252 17.712 17.796V28.164C17.712 29.028 17.744 29.604 17.808 30.212H15.52V29.332H8.448V30.212H6.192C6.256 29.604 6.288 28.932 6.288 28.164V17.844C6.288 17.236 6.256 16.676 6.208 16.084C6.72 16.132 7.28 16.164 8.016 16.164ZM8.448 21.604H15.52V18.18H8.448V21.604ZM15.52 23.588H8.448V27.316H15.52V23.588ZM33.12 20.004H29.904C30.672 21.396 31.376 22.34 32.368 23.332C33.472 24.404 34.432 25.124 35.664 25.764C35.088 26.5 34.864 26.9 34.464 27.86C33.424 27.172 32.816 26.676 31.856 25.748V27.38C31.344 27.332 30.896 27.3 30.256 27.3H28.96V28.276C28.96 29.044 28.992 29.764 29.072 30.34H26.72C26.8 29.732 26.832 29.06 26.832 28.276V27.3H25.664C25.024 27.3 24.576 27.332 24.064 27.38V25.764C23.184 26.676 22.512 27.236 21.552 27.892C21.168 26.948 20.96 26.596 20.384 25.876C21.648 25.108 22.624 24.292 23.616 23.188C24.512 22.18 25.264 21.108 25.808 20.004H22.864C22.128 20.004 21.552 20.036 20.896 20.116V17.908C21.536 17.988 22.096 18.02 22.864 18.02H26.832V16.964C26.832 16.308 26.8 15.924 26.736 15.476H29.056C28.992 15.892 28.96 16.308 28.96 16.964V18.02H33.12C33.936 18.02 34.544 17.988 35.12 17.908V20.116C34.432 20.036 33.888 20.004 33.12 20.004ZM26.832 25.38V23.364C26.832 22.868 26.864 22.388 26.928 21.78C26.272 23.108 25.584 24.116 24.448 25.348C24.72 25.38 25.008 25.38 25.552 25.38H26.832ZM28.96 25.38H30.416C30.944 25.38 31.168 25.38 31.456 25.348C30.352 24.18 29.664 23.236 28.864 21.764C28.944 22.676 28.96 22.98 28.96 23.332V25.38ZM38.736 24.612L40.656 23.7C40.976 24.372 41.504 25.044 42.176 25.636C42.528 25.06 42.704 24.5 42.8 23.636H39.312C38.624 23.636 38.144 23.652 37.648 23.7C37.68 23.316 37.712 22.868 37.712 22.276V18.692C37.712 18.116 37.68 17.716 37.648 17.316C38.096 17.364 38.64 17.38 39.456 17.38H42.96V16.884C42.96 16.34 42.928 15.988 42.864 15.46H45.184C45.12 15.924 45.104 16.244 45.104 16.932V17.156C45.104 17.22 45.104 17.268 45.104 17.38H48.624C49.488 17.38 50.032 17.364 50.448 17.316C50.4 17.7 50.384 18.084 50.384 18.692V22.276C50.384 22.916 50.4 23.332 50.448 23.7C49.968 23.652 49.504 23.636 48.768 23.636H44.896C44.704 25.092 44.464 25.86 43.888 26.756C44.608 27.076 45.168 27.268 45.904 27.444C47.072 27.716 48.88 27.892 50.576 27.892C50.752 27.892 51.072 27.892 51.6 27.876C51.2 28.628 51.008 29.124 50.736 30.164C48.608 30.068 47.552 29.94 46.304 29.668C44.864 29.364 43.632 28.9 42.528 28.26C41.312 29.236 39.872 29.86 37.616 30.404C37.312 29.54 37.088 29.124 36.528 28.388C38.256 28.164 39.76 27.668 40.8 26.98C40.24 26.484 39.92 26.132 39.312 25.332C39.12 25.092 39.088 25.06 38.928 24.852C38.832 24.724 38.832 24.724 38.736 24.612ZM45.024 21.78H48.256V19.3H45.088C45.072 19.668 45.072 20.02 45.072 20.212C45.056 21.124 45.056 21.124 45.024 21.78ZM39.808 21.78H42.896C42.928 20.532 42.944 19.7 42.944 19.3H39.808V21.78Z" fill="#FDFDFD"/>
<path d="M4 30.58H52V31.38H4V30.58Z" fill="#FDFDFD"/>
<path d="M10.24 48.376L10.214 48.402C9.72 47.973 9.278 47.7 8.771 47.531C9.382 46.426 9.733 44.97 9.837 42.929C9.447 42.435 9.122 42.123 8.693 41.824C8.693 42.084 8.706 42.448 8.732 42.838C8.433 42.799 8.368 42.799 7.874 42.799H6.509C6.47 43.267 6.418 43.878 6.379 44.112H7.783C8.264 44.112 8.563 44.099 8.732 44.073C8.693 44.359 8.667 44.632 8.641 45.607C8.602 46.504 8.433 48.09 8.329 48.545C8.056 49.624 7.562 49.949 6.171 49.949C5.794 49.949 5.391 49.936 5.066 49.936C5.027 49.143 4.988 48.844 4.767 48.207C5.365 48.272 5.794 48.311 5.976 48.311C6.561 48.311 6.73 48.194 6.821 47.726C6.912 47.323 6.99 46.439 7.029 45.594H5.508C5.209 45.594 4.936 45.607 4.559 45.633C4.832 44.099 4.936 42.994 4.975 41.317C5.248 41.343 5.443 41.356 5.976 41.356H7.081V40.004H5.742C5.222 40.004 4.962 40.017 4.65 40.056V38.431C4.988 38.483 5.261 38.496 5.872 38.496H7.666C8.199 38.496 8.472 38.483 8.732 38.444C8.706 38.795 8.693 39.055 8.693 39.497V41.694C9.538 40.797 10.37 39.042 10.5 37.898L12.242 38.262C12.164 38.444 12.164 38.47 12.06 38.756C12.008 38.912 11.878 39.263 11.657 39.822H14.92C15.635 39.822 16.012 39.809 16.441 39.744V41.395C15.882 41.343 15.466 41.33 14.985 41.33H13.62V48.415C13.62 49.624 13.152 49.988 11.618 49.988C11.41 49.988 11.059 49.975 10.513 49.936C10.487 49.26 10.422 48.935 10.24 48.376ZM10.11 42.682L11.397 42.929C11.241 45.412 10.903 47.063 10.279 48.298C10.695 48.376 11.254 48.428 11.566 48.428C11.904 48.428 11.982 48.363 11.982 48.09V41.33H10.968C10.695 41.863 10.474 42.201 10.11 42.682ZM14.14 42.929L15.622 42.578C15.817 44.697 16.142 46.088 16.753 47.466C16.233 47.778 15.791 48.129 15.336 48.597C14.959 47.648 14.816 47.232 14.647 46.491C14.413 45.503 14.296 44.658 14.14 42.929ZM22.772 42.045H20.276C19.769 43.111 19.223 43.93 18.508 44.749C18.092 44.086 17.884 43.839 17.338 43.371C18.287 42.422 19.028 41.109 19.457 39.653C19.6 39.172 19.678 38.821 19.717 38.444L21.459 38.873C21.433 38.964 21.433 38.964 21.342 39.211C21.303 39.315 21.303 39.328 21.199 39.653C21.134 39.874 21.03 40.186 20.926 40.498H22.772V39.718C22.772 38.964 22.746 38.535 22.681 38.067H24.605C24.54 38.496 24.527 38.938 24.527 39.705V40.498H27.036C27.725 40.498 28.362 40.472 28.921 40.42V42.123C28.284 42.071 27.751 42.045 27.088 42.045H24.527V44.216H26.62C27.283 44.216 27.842 44.19 28.336 44.138V45.841C27.803 45.789 27.27 45.763 26.633 45.763H24.527V48.181H27.452C28.219 48.181 28.817 48.155 29.389 48.09V49.845C28.739 49.78 28.193 49.754 27.491 49.754H19.717C19.015 49.754 18.391 49.78 17.741 49.845V48.09C18.326 48.155 18.963 48.181 19.665 48.181H22.772V45.763H20.939C20.289 45.763 19.769 45.789 19.275 45.841V44.151C19.73 44.203 20.172 44.216 20.913 44.216H22.772V42.045ZM36.903 45.776H36.682C36.227 45.776 35.707 45.802 35.265 45.841V44.19C35.577 44.242 36.006 44.255 36.721 44.255H39.555V43.345H36.721C36.188 43.345 35.668 43.371 35.265 43.41V41.798C35.59 41.837 36.097 41.863 36.747 41.863H37.904V40.836H36.981C36.175 40.862 35.694 40.875 35.525 40.888V39.276C35.902 39.328 36.331 39.354 36.916 39.354H37.904V39.055C37.904 38.678 37.878 38.418 37.839 38.106H39.62C39.555 38.392 39.529 38.652 39.529 39.042V39.354H40.751C41.323 39.354 41.765 39.328 42.142 39.276V40.888C41.765 40.849 41.401 40.836 40.777 40.836H39.529V41.863H41.089C41.726 41.863 42.22 41.837 42.545 41.798V43.41C42.194 43.358 41.856 43.345 41.271 43.345H41.154V44.255C41.869 44.255 42.194 44.242 42.493 44.19V45.841C42.09 45.789 41.817 45.776 41.154 45.776V48.532C41.154 49.234 41.024 49.559 40.66 49.767C40.283 49.988 39.789 50.066 38.892 50.066C38.775 50.066 38.437 50.053 37.982 50.04C37.93 49.351 37.839 48.948 37.605 48.441C37.982 48.506 38.58 48.545 39.074 48.545C39.451 48.545 39.555 48.48 39.555 48.207V45.776H36.929C37.618 46.413 37.982 46.842 38.554 47.687L37.202 48.74C36.682 47.83 36.253 47.271 35.59 46.608L36.903 45.776ZM30.936 47.726V40.017C30.936 39.419 30.923 39.107 30.884 38.665C31.209 38.704 31.43 38.717 32.002 38.717H33.874C34.446 38.717 34.68 38.704 34.979 38.678C34.953 38.977 34.953 39.237 34.953 39.952V47.57C34.953 48.285 34.953 48.545 34.979 48.896H33.419V48.246H32.47V49.351H30.858C30.91 48.922 30.936 48.48 30.936 47.726ZM32.483 40.186V42.669H33.432V40.186H32.483ZM32.483 44.125V46.738H33.432V44.125H32.483ZM53.998 42.877L51.385 43.059C51.554 44.255 51.853 45.295 52.282 46.205C52.568 46.79 52.893 47.297 53.244 47.7C53.374 47.843 53.621 48.025 53.673 48.025C53.894 48.025 54.063 47.258 54.167 45.815C54.752 46.309 55.012 46.491 55.649 46.79C55.363 49.169 54.856 50.092 53.842 50.092C53.192 50.092 52.542 49.663 51.814 48.779C50.696 47.388 50.007 45.62 49.643 43.176L48.447 43.267C47.836 43.306 47.576 43.332 47.134 43.41L47.108 41.694C47.355 41.707 47.459 41.707 47.589 41.707C47.823 41.707 48.226 41.694 48.525 41.668L49.474 41.603C49.409 40.589 49.409 40.589 49.37 39.237C49.37 38.912 49.331 38.47 49.305 38.197L51.177 38.171C51.138 38.457 51.125 38.717 51.125 39.224C51.125 39.965 51.151 40.498 51.216 41.486L53.855 41.291C54.622 41.239 54.947 41.2 55.337 41.122L55.363 42.851C55.155 42.838 55.077 42.838 54.908 42.838C54.648 42.838 54.453 42.851 53.998 42.877ZM44.989 48.506V45.282C44.989 44.593 45.002 44.281 45.015 43.826C44.495 44.567 44.378 44.71 43.858 45.23C43.611 44.333 43.481 44.008 43.117 43.384C44.261 42.188 44.976 41.083 45.574 39.627C45.821 38.99 46.003 38.405 46.055 37.95L47.797 38.522C47.459 39.51 47.433 39.588 46.692 41.187V48.532C46.692 49.182 46.718 49.611 46.77 50.118H44.911C44.963 49.676 44.989 49.221 44.989 48.506ZM51.528 39.133L52.789 38.171C53.504 38.808 53.946 39.276 54.7 40.186L53.387 41.252C52.828 40.511 52.178 39.757 51.528 39.133Z" fill="#FDFDFD"/>
<path d="M4 50.3H56V50.95H4V50.3Z" fill="#FDFDFD"/>
<rect x="4" y="54.5" width="55.2" height="20.8" rx="10.4" fill="black"/>
<path d="M18.5615 68.664H16.7495C16.8215 68.196 16.8455 67.728 16.8455 67.104V60.492H16.2695C15.8255 60.492 15.4775 60.516 15.0335 60.564V59.04C15.4055 59.1 15.6695 59.112 16.2335 59.112H17.3375C17.9495 59.112 18.1295 59.1 18.5615 59.052C18.4895 59.76 18.4655 60.312 18.4655 61.032V67.104C18.4655 67.74 18.4895 68.172 18.5615 68.664ZM25.9885 68.856C24.9685 68.856 24.1045 68.52 23.4685 67.884C23.1085 67.524 22.8325 67.104 22.6765 66.672C22.3645 65.82 22.2085 64.884 22.2085 63.912C22.2085 62.64 22.4965 61.32 22.9405 60.588C23.5885 59.508 24.6685 58.92 26.0005 58.92C27.0205 58.92 27.8965 59.256 28.5325 59.892C28.8925 60.252 29.1685 60.672 29.3245 61.104C29.6365 61.944 29.7925 62.904 29.7925 63.888C29.7925 65.364 29.4685 66.66 28.9045 67.44C28.2325 68.376 27.2365 68.856 25.9885 68.856ZM26.0005 67.464C26.5285 67.464 26.9965 67.284 27.2965 66.96C27.8365 66.396 28.1365 65.28 28.1365 63.876C28.1365 62.484 27.8365 61.392 27.2965 60.804C27.0085 60.48 26.5285 60.3 25.9885 60.3C25.4125 60.3 24.9925 60.492 24.6445 60.912C24.1165 61.536 23.8525 62.52 23.8525 63.828C23.8525 65.088 24.0805 66.132 24.4645 66.684C24.8365 67.212 25.3405 67.464 26.0005 67.464ZM34.5315 68.856C33.5115 68.856 32.6475 68.52 32.0115 67.884C31.6515 67.524 31.3755 67.104 31.2195 66.672C30.9075 65.82 30.7515 64.884 30.7515 63.912C30.7515 62.64 31.0395 61.32 31.4835 60.588C32.1315 59.508 33.2115 58.92 34.5435 58.92C35.5635 58.92 36.4395 59.256 37.0755 59.892C37.4355 60.252 37.7115 60.672 37.8675 61.104C38.1795 61.944 38.3355 62.904 38.3355 63.888C38.3355 65.364 38.0115 66.66 37.4475 67.44C36.7755 68.376 35.7795 68.856 34.5315 68.856ZM34.5435 67.464C35.0715 67.464 35.5395 67.284 35.8395 66.96C36.3795 66.396 36.6795 65.28 36.6795 63.876C36.6795 62.484 36.3795 61.392 35.8395 60.804C35.5515 60.48 35.0715 60.3 34.5315 60.3C33.9555 60.3 33.5355 60.492 33.1875 60.912C32.6595 61.536 32.3955 62.52 32.3955 63.828C32.3955 65.088 32.6235 66.132 33.0075 66.684C33.3795 67.212 33.8835 67.464 34.5435 67.464ZM44.8025 63.276H44.9705C45.1865 62.7 45.2465 62.532 45.4025 62.004H45.1025C44.7545 62.004 44.4425 62.016 44.1665 62.052V60.828C44.4545 60.864 44.7305 60.876 45.1265 60.876H45.7265C45.8465 60.396 45.8465 60.396 45.9425 59.94H45.1625C44.5865 59.94 44.2745 59.952 43.9025 60V58.728C44.3105 58.764 44.7065 58.788 45.2465 58.788H48.9065C49.5185 58.788 49.9145 58.764 50.2385 58.728V60C49.8665 59.952 49.5545 59.94 48.9665 59.94H47.2385C47.1185 60.396 47.0465 60.708 46.9985 60.876H48.4265C48.8465 60.876 49.1225 60.864 49.3745 60.828C49.3385 61.092 49.3265 61.32 49.3265 61.764V63.276C49.9025 63.276 50.0585 63.264 50.4185 63.204V64.488C50.0225 64.44 49.7465 64.428 49.2425 64.428H44.8025C44.2505 64.428 43.9745 64.44 43.6145 64.488V63.216C43.9745 63.264 44.2025 63.276 44.8025 63.276ZM46.2665 63.276H48.0905V62.004H46.6865C46.5185 62.592 46.4705 62.724 46.2665 63.276ZM39.7505 59.856V58.692C40.0505 58.74 40.2665 58.752 40.7465 58.752H42.3665C42.8465 58.752 43.0625 58.74 43.3625 58.692V59.856C42.9785 59.82 42.8945 59.82 42.3665 59.82H40.7465C40.3145 59.82 40.0505 59.832 39.7505 59.856ZM39.3545 61.596V60.348C39.6425 60.396 39.8705 60.408 40.3145 60.408H42.5825C43.0865 60.408 43.3265 60.396 43.6025 60.36V61.596C43.3385 61.56 43.1585 61.548 42.6425 61.548H40.3145C39.8945 61.548 39.6425 61.56 39.3545 61.596ZM39.7745 63.264V62.148C40.0145 62.172 40.1705 62.184 40.5665 62.184H42.5825C42.9785 62.184 43.1345 62.172 43.3505 62.148V63.264C43.0505 63.228 42.9785 63.228 42.5825 63.228H40.5665C40.1825 63.228 40.0145 63.24 39.7745 63.264ZM39.7745 64.932V63.828C40.0145 63.852 40.1705 63.864 40.5665 63.864H42.5825C42.9785 63.864 43.1345 63.852 43.3505 63.828V64.932C43.0505 64.896 42.9785 64.896 42.5585 64.896H40.5545C40.1945 64.896 40.0025 64.908 39.7745 64.932ZM39.7265 68.316V66.456C39.7265 66.084 39.7145 65.808 39.6665 65.508C39.9665 65.544 40.2425 65.556 40.5905 65.556H42.6425C43.1105 65.556 43.2425 65.556 43.4465 65.52C43.4225 65.736 43.4105 65.94 43.4105 66.384V68.388C43.4105 68.832 43.4225 69.012 43.4585 69.324H42.2825V68.916H40.8905V69.48H39.6545C39.7025 69.108 39.7265 68.736 39.7265 68.316ZM40.9025 66.576V67.848H42.2825V66.576H40.9025ZM44.2505 68.292V65.928C44.2505 65.568 44.2385 65.34 44.2145 65.076C44.5145 65.1 44.7545 65.112 45.2345 65.112H48.8225C49.3505 65.112 49.5545 65.1 49.7945 65.076C49.7585 65.328 49.7465 65.64 49.7465 66.036V68.304C49.7465 68.808 49.7705 69.192 49.8065 69.492H48.4385V68.964H45.5345V69.504H44.2025C44.2385 69.168 44.2505 68.772 44.2505 68.292ZM45.5345 66.228V67.788H48.4385V66.228H45.5345Z" fill="white"/>
<g clip-path="url(#clip0_128_1472)">
<path d="M51.2282 91.7834L33.4871 127.045H42.3837L51.2282 109.432L51.2334 127.045H70.4304L51.2282 91.7834Z" fill="white"/>
<path d="M89.6846 127.045L70.4616 91.7938L53.7275 91.742L72.9506 127.045H89.6846Z" fill="white"/>
</g>
<defs>
<clipPath id="clip0_128_1472">
<rect width="59.1667" height="58.7722" fill="white" transform="translate(32 81.5)"/>
</clipPath>
</defs>
</svg>
