<svg width="34" height="17" viewBox="0 0 34 17" fill="none" xmlns="http://www.w3.org/2000/svg">
<path d="M9.911 6.568H11.951V16.53H9.911V6.568ZM5.423 8.71H16.354V10.546H5.423V8.71ZM12.342 9.526C12.6593 10.138 13.056 10.7443 13.532 11.345C14.0193 11.9457 14.5463 12.501 15.113 13.011C15.691 13.521 16.2747 13.946 16.864 14.286C16.7167 14.3993 16.5467 14.5523 16.354 14.745C16.1727 14.9377 15.997 15.136 15.827 15.34C15.6683 15.544 15.5323 15.731 15.419 15.901C14.8297 15.4817 14.246 14.9603 13.668 14.337C13.1013 13.7137 12.5687 13.0393 12.07 12.314C11.5827 11.5773 11.1633 10.8293 10.812 10.07L12.342 9.526ZM9.622 9.356L11.22 9.917C10.8573 10.7103 10.4153 11.4867 9.894 12.246C9.37267 12.994 8.80033 13.6797 8.177 14.303C7.55367 14.915 6.902 15.4363 6.222 15.867C6.12 15.697 5.984 15.51 5.814 15.306C5.65533 15.102 5.48533 14.9093 5.304 14.728C5.134 14.5353 4.96967 14.371 4.811 14.235C5.46833 13.895 6.103 13.47 6.715 12.96C7.327 12.4387 7.88233 11.872 8.381 11.26C8.891 10.6367 9.30467 10.002 9.622 9.356ZM8.483 3.1V5.378H13.481V3.1H8.483ZM6.562 1.298H15.538V7.163H6.562V1.298ZM4.335 0.600999L6.222 1.213C5.848 2.17633 5.40033 3.13967 4.879 4.103C4.369 5.055 3.81367 5.96167 3.213 6.823C2.62367 7.673 2.01733 8.421 1.394 9.067C1.33733 8.897 1.24667 8.68167 1.122 8.421C0.997333 8.16033 0.861333 7.894 0.714 7.622C0.566667 7.35 0.430667 7.13467 0.306 6.976C0.838667 6.45467 1.35433 5.854 1.853 5.174C2.35167 4.494 2.81067 3.763 3.23 2.981C3.66067 2.199 4.029 1.40567 4.335 0.600999ZM2.686 5.293L4.624 3.355V3.372V16.479H2.686V5.293ZM22.933 10.325H33.354V12.229H22.933V10.325ZM24.242 6.041H30.736V7.877H24.242V6.041ZM27.268 8.914H29.325V14.354C29.325 14.864 29.2627 15.2607 29.138 15.544C29.0247 15.8387 28.7867 16.0597 28.424 16.207C28.0613 16.3657 27.625 16.4563 27.115 16.479C26.6163 16.513 26.0213 16.53 25.33 16.53C25.296 16.224 25.2223 15.8897 25.109 15.527C25.007 15.1643 24.8937 14.8413 24.769 14.558C25.0523 14.5693 25.3413 14.5807 25.636 14.592C25.9307 14.6033 26.1913 14.609 26.418 14.609C26.656 14.5977 26.8147 14.592 26.894 14.592C27.0413 14.5807 27.1377 14.558 27.183 14.524C27.2397 14.49 27.268 14.4163 27.268 14.303V8.914ZM30.243 6.041H30.753L31.161 5.939L32.436 6.942C32.1073 7.32733 31.7333 7.72967 31.314 8.149C30.8947 8.557 30.4583 8.95367 30.005 9.339C29.563 9.713 29.1267 10.0417 28.696 10.325C28.5713 10.1437 28.3957 9.934 28.169 9.696C27.9537 9.458 27.7667 9.27667 27.608 9.152C27.9367 8.914 28.271 8.63633 28.611 8.319C28.951 7.99033 29.2627 7.656 29.546 7.316C29.8407 6.976 30.073 6.68133 30.243 6.432V6.041ZM17.935 2.777H33.099V4.732H17.935V2.777ZM23.256 0.55L25.432 1.06C25.0127 2.44267 24.4857 3.80267 23.851 5.14C23.2163 6.466 22.4457 7.707 21.539 8.863C20.6437 10.019 19.584 11.0163 18.36 11.855C18.292 11.6623 18.1957 11.447 18.071 11.209C17.9577 10.9597 17.833 10.7103 17.697 10.461C17.5723 10.2117 17.4533 10.0077 17.34 9.849C18.1107 9.339 18.8133 8.73267 19.448 8.03C20.0827 7.316 20.6437 6.551 21.131 5.735C21.6183 4.90767 22.0377 4.052 22.389 3.168C22.7517 2.284 23.0407 1.41133 23.256 0.55ZM19.873 7.639H21.93V16.496H19.873V7.639Z" fill="#F24326"/>
</svg>
